<?xml version="1.0" encoding="UTF-8"?>
<svg version="1.1" xmlns="http://www.w3.org/2000/svg" width="1130" height="1122">
<path d="M0 0 C2.50534141 0.55457423 5.01100672 1.1076869 7.51696777 1.65945435 C12.88945333 2.84540545 18.25973878 4.04062031 23.62826538 5.24435425 C32.22162744 7.17091512 40.82001546 9.07442886 49.41918945 10.97485352 C52.36842628 11.62690923 55.31762343 12.27914424 58.26679993 12.93147278 C59.0013232 13.09393271 59.73584648 13.25639265 60.49262804 13.42377561 C65.74807736 14.58650302 71.00282251 15.7523785 76.25724792 16.91972351 C103.15655325 22.89508918 130.07716995 28.7691237 157.00473022 34.61593628 C168.54295273 37.121477 180.07973769 39.63362418 191.61665916 42.14514732 C195.50908592 42.9924647 199.40154877 43.8396161 203.29402161 44.6867218 C231.57643342 50.8419309 259.85678659 57.00657966 288.13674164 63.17306519 C291.56743217 63.92113177 294.99813108 64.66915994 298.42883229 65.41717756 C331.08933185 72.53838202 363.74870205 79.66474515 396.4068079 86.79691935 C399.68276929 87.51234286 402.9587392 88.2277273 406.23470974 88.94310892 C410.28814947 89.8282692 414.34158507 90.7134484 418.39501953 91.59863281 C419.19182223 91.77263713 419.98862494 91.94664145 420.80957317 92.12591863 C430.20002401 94.17660943 439.59038419 96.22771436 448.98059791 98.27949065 C454.84414264 99.56066363 460.70777054 100.84145551 466.57145745 102.12197763 C469.9422002 102.85810549 473.31290368 103.59441186 476.68349266 104.33124352 C480.38596941 105.14053355 484.0885821 105.94919806 487.79125977 106.75756836 C488.95253356 107.01130816 490.11380735 107.26504797 491.31027126 107.52647686 C497.48810177 108.87360795 503.66899165 110.20487779 509.85446167 111.51638794 C511.16347514 111.79450822 512.4724882 112.07263046 513.78150082 112.35075474 C516.2692174 112.87839601 518.7574368 113.4036737 521.24621677 113.92627621 C522.35230762 114.16088841 523.45839846 114.39550062 524.5980072 114.63722229 C525.57523208 114.84295144 526.55245695 115.04868059 527.5592947 115.26064396 C529.89453125 115.82421875 529.89453125 115.82421875 531.89453125 116.82421875 C532.16757592 134.00227336 531.45340117 151.01159945 530.29352908 168.1478374 C530.0525112 171.73541849 529.82081677 175.32360521 529.58783811 178.91171569 C529.17992888 185.17478865 528.76629459 191.43746205 528.34872055 197.69989777 C527.72780688 207.01223416 527.11603521 216.32515606 526.50601368 225.63821152 C525.47899781 241.31344818 524.44468596 256.98819529 523.40608406 272.66266823 C522.37824213 288.17499983 521.35356797 303.68753528 520.33309746 319.20035362 C520.23765722 320.65114856 520.23765722 320.65114856 520.14028889 322.13125248 C519.81711614 327.0440476 519.49399637 331.95684621 519.17089503 336.86964604 C516.88571033 371.61444845 514.59304983 406.35875395 512.29614258 441.1027832 C510.06745334 474.81505885 507.84285178 508.52760059 505.62329102 542.24047852 C505.52062575 543.79983174 505.52062575 543.79983174 505.41588644 545.39068704 C504.86523155 553.75445346 504.31459353 562.11822099 503.76398576 570.48199051 C501.3880769 606.57214284 499.00920162 642.66209969 496.62944871 678.75199873 C496.24527185 684.57822322 495.86114113 690.40445074 495.47704746 696.23068071 C494.06772194 717.60818541 492.65746131 738.98562781 491.24422223 760.36287419 C490.68648768 768.79959529 490.12913682 777.23634121 489.57300568 785.67316818 C489.11192072 792.66802506 488.64991694 799.66282045 488.18666374 806.65753408 C487.9535451 810.17778422 487.72084412 813.69806055 487.48933638 817.21841703 C487.23947791 821.01422025 486.98794019 824.80990862 486.73597813 828.6055727 C486.66480525 829.69285702 486.59363237 830.78014134 486.52030274 831.90037367 C486.38617719 833.91067454 486.24596116 835.92058178 486.09858639 837.9299548 C485.95784154 839.92624244 485.84073303 841.92428891 485.74298035 843.92314305 C485.68278452 844.90821073 485.6225887 845.89327841 485.56056875 846.90819663 C485.5159318 847.78552545 485.47129486 848.66285427 485.42530527 849.56676881 C484.75969722 852.39768517 483.79960705 853.14113835 481.39648438 854.69921875 C479.84266341 855.44987969 478.26673519 856.15584983 476.67578125 856.82421875 C474.92551766 857.64918058 473.17552755 858.47472282 471.42578125 859.30078125 C470.05583008 859.92001465 470.05583008 859.92001465 468.65820312 860.55175781 C464.17040595 862.61804747 459.80889738 864.92155018 455.42578125 867.19921875 C453.61969241 868.12297379 451.81271104 869.04498569 450.00488281 869.96533203 C444.13854987 872.95457014 438.27409251 875.94746958 432.41015625 878.94140625 C431.42311707 879.44525848 430.43607788 879.94911072 429.41912842 880.4682312 C420.65213012 884.94483928 411.89615338 889.4426416 403.14453125 893.94921875 C390.65220532 900.3809149 378.15138467 906.79581642 365.64453125 913.19921875 C364.78535095 913.6391214 363.92617065 914.07902405 363.04095459 914.53225708 C362.18165344 914.97222015 361.32235229 915.41218323 360.43701172 915.86547852 C358.70149591 916.75406611 356.96598159 917.6426566 355.23046875 918.53125 C354.37097626 918.97130875 353.51148376 919.41136749 352.62594604 919.86476135 C343.50519156 924.53494581 334.38712382 929.21036499 325.26953125 933.88671875 C324.46906372 934.29726501 323.66859619 934.70781128 322.84387207 935.13079834 C318.80831809 937.20058146 314.7728011 939.27043668 310.73730469 941.34033203 C303.43644072 945.08505902 296.13522834 948.82910662 288.83404541 952.57321167 C284.77086005 954.65685346 280.70769676 956.74053826 276.64453125 958.82421875 C275.01953136 959.65755229 273.39453136 960.49088562 271.76953125 961.32421875 C270.96515625 961.73671875 270.16078125 962.14921875 269.33203125 962.57421875 C168.17578125 1014.44921875 168.17578125 1014.44921875 67.01953125 1066.32421875 C66.21522675 1066.7366835 65.41092224 1067.14914825 64.58224487 1067.57411194 C62.95653576 1068.40780709 61.33082368 1069.24149646 59.70510864 1070.07518005 C55.65343375 1072.1529302 51.60180975 1074.23077946 47.55029297 1076.30883789 C40.10883844 1080.1254981 32.66698446 1083.94137031 25.22323608 1087.7535553 C22.66540719 1089.06362168 20.10783932 1090.37419658 17.55029297 1091.68481445 C14.2379139 1093.38211975 10.92432178 1095.07702303 7.60986328 1096.77026367 C0.39767992 1100.45867554 -6.79688787 1104.17119178 -13.93359375 1108.00390625 C-15.09713379 1108.62467041 -16.26067383 1109.24543457 -17.45947266 1109.88500977 C-19.5673389 1111.01383051 -21.66912945 1112.15410804 -23.76318359 1113.30834961 C-24.67277832 1113.79440674 -25.58237305 1114.28046387 -26.51953125 1114.78125 C-27.29248535 1115.2038208 -28.06543945 1115.6263916 -28.86181641 1116.06176758 C-32.85649401 1117.41926248 -35.50715206 1116.09808165 -39.23535156 1114.39160156 C-40.42972365 1113.77653203 -41.6206033 1113.15465061 -42.80859375 1112.52734375 C-43.79484741 1112.01643692 -43.79484741 1112.01643692 -44.80102539 1111.49520874 C-46.23307988 1110.75242714 -47.66364848 1110.00677538 -49.09289551 1109.25860596 C-51.40383602 1108.04889998 -53.71845068 1106.84650776 -56.03417969 1105.64599609 C-58.50140093 1104.36679653 -60.96834691 1103.0870901 -63.43414307 1101.80514526 C-71.86755048 1097.42106311 -80.3270194 1093.0884897 -88.78973389 1088.76132202 C-93.11718975 1086.54828393 -97.44328893 1084.33259672 -101.76953125 1082.1171875 C-102.62922516 1081.67701797 -103.48891907 1081.23684845 -104.37466431 1080.78334045 C-113.49524523 1076.1133263 -122.61308272 1071.43796658 -131.73046875 1066.76171875 C-132.93117004 1066.14589935 -132.93117004 1066.14589935 -134.15612793 1065.51763916 C-138.19168191 1063.44785604 -142.2271989 1061.37800082 -146.26269531 1059.30810547 C-153.56355928 1055.56337848 -160.86477166 1051.81933088 -168.16595459 1048.07522583 C-172.22913995 1045.99158404 -176.29230324 1043.90789924 -180.35546875 1041.82421875 C-181.98046864 1040.99088521 -183.60546864 1040.15755188 -185.23046875 1039.32421875 C-265.66796875 998.07421875 -346.10546875 956.82421875 -470.41751099 893.07444763 C-472.04403051 892.24033897 -473.6705564 891.40624272 -475.29708862 890.57215881 C-479.3363919 888.50078922 -483.37558772 886.42921064 -487.41455078 884.35717773 C-495.00338719 880.46430186 -502.59330975 876.57358591 -510.18682861 872.68984985 C-513.75882429 870.86278355 -517.33023939 869.03458401 -520.90161133 867.20629883 C-522.59809925 866.33821995 -524.29486892 865.47069145 -525.99194336 864.60375977 C-528.3508222 863.39870858 -530.70870706 862.19173219 -533.06640625 860.984375 C-533.74911591 860.63625259 -534.43182556 860.28813019 -535.13522339 859.92945862 C-536.41244794 859.27452825 -537.68388686 858.60812003 -538.94764803 857.92757317 C-541.09972083 856.78757468 -541.09972083 856.78757468 -543.40706743 855.89073971 C-549.54273122 853.1469857 -549.54273122 853.1469857 -551.01880571 849.6773352 C-551.46739328 846.91993588 -551.62541941 844.26336316 -551.7014122 841.47045135 C-551.76510755 840.4212748 -551.82880289 839.37209824 -551.8944284 838.29112846 C-552.09859808 834.77865476 -552.24198185 831.26622233 -552.387146 827.75085449 C-552.52378743 825.23149654 -552.66500097 822.71238297 -552.81046653 820.19351912 C-553.07685452 815.51300544 -553.33101368 810.83231992 -553.56559272 806.15013679 C-554.00370475 797.42088313 -554.54719833 788.70133979 -555.14221954 779.98121643 C-555.18723742 779.32122129 -555.23225529 778.66122615 -555.27863735 777.98123115 C-555.46304797 775.27944508 -555.64782738 772.57768484 -555.83338731 769.87597744 C-556.37092103 762.03943207 -556.88298394 754.20123934 -557.39544678 746.36302185 C-557.49320889 744.87037831 -557.59099822 743.37773656 -557.68881419 741.88509655 C-557.8384244 739.60205399 -557.98801808 737.31901037 -558.13752731 735.0359612 C-558.66834077 726.93046356 -559.20115404 718.82509759 -559.73394239 710.71972957 C-560.83613548 693.95089426 -561.93618665 677.18191888 -563.03550604 660.41289496 C-563.88348048 647.47805414 -564.73203684 634.54325161 -565.58098602 621.60847473 C-565.70378824 619.73739376 -565.82659019 617.86631278 -565.94939189 615.99523178 C-566.13450764 613.17470074 -566.31962343 610.3541697 -566.50474029 607.53363874 C-568.21895798 581.41473569 -569.93251272 555.29578922 -571.64465714 529.17675018 C-571.70883892 528.19764958 -571.77302071 527.21854898 -571.8391474 526.20977867 C-572.16431724 521.24924444 -572.48948078 516.2887098 -572.81464198 511.32817501 C-572.91148196 509.85082215 -572.91148196 509.85082215 -573.0102783 508.34362378 C-573.14083191 506.35194754 -573.27138518 504.36027127 -573.40193812 502.36859498 C-575.44130873 471.25682204 -577.48296353 440.14519971 -579.52636719 409.03369141 C-581.8298223 373.96275964 -584.13153707 338.89171427 -586.43070006 303.82050085 C-586.67553285 300.08593556 -586.92037175 296.35137067 -587.16521454 292.61680603 C-587.22548716 291.69745546 -587.28575978 290.77810489 -587.34785884 289.83089522 C-588.25713041 275.96214441 -589.16777006 262.09348386 -590.07910919 248.22486877 C-591.11308963 232.48989816 -592.14526087 216.75481009 -593.17499235 201.01956081 C-593.75102168 192.21813457 -594.3284981 183.41680607 -594.90804608 174.6156108 C-595.2947511 168.74079027 -595.67956308 162.86584772 -596.06282563 156.99080161 C-596.28129067 153.64276481 -596.50086805 150.29481109 -596.72217157 146.94696003 C-596.96034478 143.34193633 -597.19531935 139.73671796 -597.42947769 136.13143158 C-597.4989255 135.09193936 -597.56837331 134.05244713 -597.6399256 132.98145515 C-597.98695414 127.58154914 -598.17488675 122.23527839 -598.10546875 116.82421875 C-568.85328309 110.2872429 -539.5736186 103.87654897 -510.2914632 97.47538954 C-505.45169587 96.41740083 -500.61198743 95.35914307 -495.77230835 94.30075073 C-430.19297977 79.95943278 -364.60395289 65.66261989 -299.0143261 51.36849022 C-294.83235854 50.45710172 -290.65039231 49.54570713 -286.46842778 48.63430476 C-285.07491199 48.33060815 -283.68139569 48.0269139 -282.28787887 47.72322202 C-274.62313434 46.05282707 -266.95843232 44.38223751 -259.2938385 42.71115112 C-256.50815008 42.10381217 -253.72245926 41.49648416 -250.93676758 40.88916016 C-249.90331134 40.66384491 -249.90331134 40.66384491 -248.84897721 40.43397784 C-239.89366626 38.48159955 -230.93789407 36.53135423 -221.98167896 34.58312798 C-215.14902251 33.09680176 -208.31662605 31.60928232 -201.484375 30.12109375 C-200.80815873 29.97381411 -200.13194246 29.82653447 -199.43523479 29.67479181 C-179.16258562 25.25883162 -158.90144254 20.79274603 -138.6472376 16.29297775 C-133.38117724 15.1232784 -128.11450358 13.95637527 -122.84739685 12.79139709 C-122.11331114 12.62902347 -121.37922543 12.46664984 -120.6228947 12.2993558 C-117.68383037 11.6493315 -114.74474359 10.99940919 -111.80557477 10.34985745 C-103.28756489 8.46735116 -94.77173851 6.57566185 -86.2595616 4.66694629 C-80.36310618 3.34567365 -74.46316579 2.04068837 -68.56181526 0.74143219 C-66.15651277 0.20902414 -63.75240808 -0.32883083 -61.3496685 -0.87268829 C-38.80635012 -5.970511 -22.49321544 -5.09021355 0 0 Z " fill="#8F0000" transform="translate(598.10546875,5.17578125)"/>
<path d="M0 0 C1.65 0 3.3 0 5 0 C5 0.66 5 1.32 5 2 C5.55759506 2.09524963 6.11519012 2.19049927 6.68968201 2.28863525 C14.36010567 3.70144675 21.72041659 5.92384276 29.16015625 8.234375 C30.55817872 8.66442884 31.95635101 9.09399586 33.35466003 9.52311707 C36.35212242 10.44385209 39.34869858 11.36739555 42.34460449 12.29318237 C49.64201438 14.54779579 56.94432719 16.78645461 64.24620438 19.02654839 C66.78707919 19.80616549 69.32779046 20.58631403 71.86849976 21.36647034 C88.22851443 26.38766706 104.61109227 31.33286731 120.9994278 36.26071167 C127.08845985 38.09179526 133.17702189 39.92444194 139.26566315 41.75682449 C140.7993603 42.21838107 142.33306696 42.67990603 143.86678314 43.14139938 C160.86015603 48.25488266 177.84594042 53.39334935 194.83042145 58.53627777 C198.7754278 59.73082376 202.72047979 60.925219 206.66552734 62.11962891 C207.453638 62.35823891 208.24174866 62.59684891 209.05374146 62.84268951 C210.65439546 63.32730554 212.25505007 63.81191958 213.85570526 64.29653168 C215.46744796 64.78450431 217.07918806 65.2724855 218.6909256 65.76047516 C237.68148528 71.51022992 256.67428831 77.25256008 275.66736221 82.9940033 C278.37829189 83.81349511 281.08921681 84.63300266 283.80014038 85.45251465 C291.07292942 87.65107343 298.34572677 89.84960472 305.61854553 92.04806519 C320.04872884 96.4100864 334.47879543 100.77249355 348.90878296 105.13516235 C350.69781486 105.676046 352.48684684 106.21692939 354.27587891 106.7578125 C355.16100599 107.02541571 356.04613308 107.29301891 356.9580822 107.56873131 C363.20948086 109.45871821 369.46093269 111.3485292 375.71240234 113.23828125 C379.28743966 114.31899465 382.86247191 115.39972481 386.4375 116.48046875 C387.32248798 116.74800335 388.20747597 117.01553795 389.11928177 117.29117966 C400.92480782 120.86010796 412.72981243 124.43075565 424.53434753 128.00296021 C430.96505046 129.94896106 437.39593455 131.89436294 443.8268404 133.83969307 C448.34057037 135.20515236 452.85417877 136.57101099 457.36752319 137.93774414 C475.68877543 143.48570538 494.01460432 149.01657116 512.36450577 154.46913719 C514.89076406 155.22005999 517.41673495 155.97194103 519.94259644 156.72419739 C520.75638197 156.96653831 521.5701675 157.20887922 522.4086132 157.4585638 C524.0231725 157.93937757 525.63772163 158.42022544 527.25226021 158.90110874 C531.89706597 160.28373468 536.54394219 161.65910794 541.19251728 163.0290041 C544.0115583 163.86136363 546.82872235 164.69993583 549.64540672 165.5402317 C551.56508411 166.11067787 553.48714549 166.67308192 555.40925598 167.23527527 C556.53659653 167.57271255 557.66393707 167.91014984 558.82543945 168.2578125 C559.80736771 168.5480127 560.78929596 168.83821289 561.80097961 169.13720703 C564 170 564 170 565 172 C565.0950312 173.84840351 565.12447833 175.70030042 565.1241985 177.5511452 C565.12644579 178.74107581 565.12869308 179.93100642 565.13100848 181.15699553 C565.12844234 182.49188424 565.12578541 183.82677278 565.12304783 185.16166115 C565.1237868 186.57438136 565.12496467 187.9871014 565.12654433 189.39982092 C565.12963031 193.31297539 565.12642425 197.22610412 565.12226619 201.13925669 C565.11884645 205.38465028 565.12120002 209.63004113 565.12284368 213.87543523 C565.12492261 221.32625201 565.12326483 228.77706081 565.11920547 236.22787666 C565.11318601 247.30707712 565.11286822 258.38627253 565.11374746 269.46547432 C565.11506336 288.09981384 565.11171238 306.73414982 565.10573006 325.36848831 C565.0998193 343.82708377 565.09596538 362.28567775 565.09487724 380.74427414 C565.0948085 381.89064545 565.09473976 383.03701675 565.09466894 384.21812659 C565.09433062 390.03962581 565.09402923 395.86112504 565.09374207 401.68262427 C565.09163992 442.94954999 565.08489774 484.2164738 565.07543945 525.48339844 C565.06625967 565.5813801 565.05917378 605.67936124 565.05493164 645.77734375 C565.05473435 647.63032553 565.05473435 647.63032553 565.05453308 649.52074129 C565.05321459 661.92599378 565.05193877 674.33124628 565.05069422 686.73649878 C565.04815779 712.00893338 565.04533654 737.28136794 565.04234314 762.55380249 C565.04220585 763.71586725 565.04206856 764.87793201 565.04192711 766.07521085 C565.03272163 843.71680804 565.01687587 921.35840415 565 999 C560.76510118 998.23891693 557.5617606 996.92508741 553.734375 994.921875 C552.81484543 994.44433022 552.81484543 994.44433022 551.8767395 993.95713806 C550.53893473 993.26147084 549.20261527 992.56294154 547.86761475 991.86190796 C545.69993523 990.72371221 543.52852553 989.59294472 541.35595703 988.46411133 C539.02183767 987.25132686 536.68793693 986.03814351 534.35513306 984.8228302 C526.07413345 980.50985514 517.76369509 976.25498526 509.45050049 972.00448608 C505.10158344 969.78066075 500.75400567 967.55421978 496.40625 965.328125 C495.54029205 964.88482346 494.67433411 964.44152191 493.78213501 963.98478699 C484.64420107 959.30669094 475.50936733 954.62255538 466.375 949.9375 C465.57471375 949.52704437 464.77442749 949.11658875 463.94989014 948.69369507 C459.91415348 946.62381956 455.87845173 944.55387602 451.84277344 942.48388672 C444.54190947 938.73915973 437.24069709 934.99511213 429.93951416 931.25100708 C425.8763288 929.16736529 421.81316551 927.08368049 417.75 925 C416.12500011 924.16666646 414.50000011 923.33333313 412.875 922.5 C332.4375 881.25 252 840 127.68795776 776.25022888 C126.06143824 775.41612022 124.43491235 774.58202397 122.80838013 773.74794006 C118.76907685 771.67657047 114.72988103 769.60499189 110.69091797 767.53295898 C103.10208156 763.64008311 95.512159 759.74936716 87.91864014 755.8656311 C84.34664446 754.0385648 80.77522936 752.21036526 77.20385742 750.38208008 C75.5073695 749.5140012 73.81059983 748.6464727 72.11352539 747.77954102 C69.75464655 746.57448983 67.39676169 745.36751344 65.0390625 744.16015625 C64.35635284 743.81203384 63.67364319 743.46391144 62.97024536 743.10523987 C61.69302081 742.4503095 60.42158189 741.78390128 59.15782072 741.10335442 C57.00574792 739.96335593 57.00574792 739.96335593 54.69840132 739.06652096 C48.56273753 736.32276695 48.56273753 736.32276695 47.08666304 732.85311645 C46.63807547 730.09571713 46.48004934 727.43914441 46.40405655 724.6462326 C46.3403612 723.59705605 46.27666586 722.54787949 46.21104035 721.46690971 C46.00687067 717.95443601 45.8634869 714.44200358 45.71832275 710.92663574 C45.58168132 708.40727779 45.44046778 705.88816422 45.29500222 703.36930037 C45.02861423 698.68878669 44.77445507 694.00810117 44.53987603 689.32591804 C44.101764 680.59666438 43.55827042 671.87712104 42.96324921 663.15699768 C42.91823133 662.49700254 42.87321346 661.8370074 42.8268314 661.1570124 C42.64242078 658.45522633 42.45764137 655.75346609 42.27208144 653.05175869 C41.73454772 645.21521332 41.22248481 637.37702059 40.71002197 629.5388031 C40.61225986 628.04615956 40.51447053 626.55351781 40.41665456 625.0608778 C40.26704435 622.77783524 40.11745067 620.49479162 39.96794144 618.21174245 C39.43712798 610.10624481 38.90431471 602.00087884 38.37152636 593.89551082 C37.26933327 577.12667551 36.1692821 560.35770013 35.06996271 543.58867621 C34.22198827 530.65383539 33.37343191 517.71903286 32.52448273 504.78425598 C32.40168051 502.91317501 32.27887856 501.04209403 32.15607686 499.17101303 C31.97096111 496.35048199 31.78584532 493.52995095 31.60072846 490.70941999 C29.88651077 464.59051694 28.17295603 438.47157047 26.46081161 412.35253143 C26.39662983 411.37343083 26.33244804 410.39433023 26.26632135 409.38555992 C25.94115151 404.42502569 25.61598797 399.46449105 25.29082677 394.50395626 C25.22626678 393.51905435 25.1617068 392.53415245 25.09519045 391.51940503 C24.96463684 389.52772879 24.83408357 387.53605252 24.70353063 385.54437623 C22.66416002 354.43260329 20.62250522 323.32098096 18.57910156 292.20947266 C16.27564645 257.13854089 13.97393168 222.06749552 11.67476869 186.9962821 C11.4299359 183.26171681 11.185097 179.52715192 10.94025421 175.79258728 C10.87998159 174.87323671 10.81970897 173.95388614 10.75760991 173.00667647 C9.84833834 159.13792566 8.93769869 145.26926511 8.02635956 131.40065002 C6.99237912 115.66567941 5.96020788 99.93059134 4.9304764 84.19534206 C4.35444707 75.39391582 3.77697065 66.59258732 3.19742267 57.79139205 C2.81071765 51.91657152 2.42590567 46.04162897 2.04264312 40.16658286 C1.82417808 36.81854606 1.6046007 33.47059234 1.38329718 30.12274128 C1.14512397 26.51771758 0.9101494 22.91249921 0.67599106 19.30721283 C0.60654325 18.26772061 0.53709544 17.22822838 0.46554315 16.1572364 C0.11851461 10.75733039 -0.069418 5.41105964 0 0 Z " fill="#670000" transform="translate(0,122)"/>
<path d="M0 0 C2.50534141 0.55457423 5.01100672 1.1076869 7.51696777 1.65945435 C12.88945333 2.84540545 18.25973878 4.04062031 23.62826538 5.24435425 C32.22162744 7.17091512 40.82001546 9.07442886 49.41918945 10.97485352 C52.36842628 11.62690923 55.31762343 12.27914424 58.26679993 12.93147278 C59.0013232 13.09393271 59.73584648 13.25639265 60.49262804 13.42377561 C65.74807736 14.58650302 71.00282251 15.7523785 76.25724792 16.91972351 C103.15655325 22.89508918 130.07716995 28.7691237 157.00473022 34.61593628 C168.54295273 37.121477 180.07973769 39.63362418 191.61665916 42.14514732 C195.50908592 42.9924647 199.40154877 43.8396161 203.29402161 44.6867218 C231.57643342 50.8419309 259.85678659 57.00657966 288.13674164 63.17306519 C291.56743217 63.92113177 294.99813108 64.66915994 298.42883229 65.41717756 C331.08933185 72.53838202 363.74870205 79.66474515 396.4068079 86.79691935 C399.68276929 87.51234286 402.9587392 88.2277273 406.23470974 88.94310892 C410.28814947 89.8282692 414.34158507 90.7134484 418.39501953 91.59863281 C419.19182223 91.77263713 419.98862494 91.94664145 420.80957317 92.12591863 C430.20002401 94.17660943 439.59038419 96.22771436 448.98059791 98.27949065 C454.84414264 99.56066363 460.70777054 100.84145551 466.57145745 102.12197763 C469.9422002 102.85810549 473.31290368 103.59441186 476.68349266 104.33124352 C479.17967083 104.87685994 481.67591169 105.42218961 484.17221928 105.96721363 C486.55175047 106.4868745 488.93110653 107.00733805 491.31027126 107.52867413 C497.48533389 108.8782252 503.66539814 110.19781897 509.85446167 111.48123169 C511.16351352 111.75461093 512.47252712 112.0281734 513.78150082 112.30192661 C516.26841572 112.8204693 518.75661553 113.33289778 521.24621677 113.83838558 C522.90535304 114.18546991 522.90535304 114.18546991 524.5980072 114.53956604 C526.06384451 114.84030454 526.06384451 114.84030454 527.5592947 115.14711857 C529.89453125 115.82421875 529.89453125 115.82421875 531.89453125 117.82421875 C513.05005811 124.31467587 494.01728663 130.07639155 474.91866302 135.75992966 C467.81253624 137.8764232 460.70952948 140.00339096 453.60589218 142.12822151 C450.78618545 142.97154568 447.96635172 143.8144443 445.14651489 144.65733337 C431.81365058 148.64404836 418.48844492 152.65569167 405.16796875 156.68359375 C404.21627934 156.97136374 403.26458992 157.25913372 402.28406143 157.55562401 C396.43174927 159.32543253 390.57966353 161.09598901 384.72762299 162.8666954 C357.19912998 171.19593132 329.66378559 179.50163886 302.11328125 187.7578125 C300.86505711 188.13192953 299.61683296 188.50604656 298.33078384 188.89150047 C286.06976445 192.56629143 273.80826912 196.23947906 261.54507828 199.90701771 C257.00882723 201.26403401 252.47302148 202.62253452 247.93730164 203.98132515 C245.84859381 204.60665518 243.75968564 205.23131657 241.67054749 205.85520744 C230.19252778 209.28309481 218.74349252 212.78147579 207.34486961 216.46603203 C201.89444756 218.22082088 196.4232634 219.83495255 190.89453125 221.32421875 C184.16595689 223.14773598 177.52808277 225.18022558 170.89453125 227.32421875 C163.54451939 229.69977507 156.17967167 231.89837151 148.72265625 233.91015625 C142.7239707 235.54809521 136.81095582 237.41216924 130.89453125 239.32421875 C123.59782835 241.68071454 116.28811296 243.88078124 108.88731384 245.88461304 C103.32543964 247.40094181 97.81062714 249.04369515 92.30078125 250.73828125 C81.61195864 254.00754409 70.90956653 257.23044552 60.203125 260.44140625 C59.36514437 260.69276085 58.52716373 260.94411545 57.66378975 261.20308685 C52.43566778 262.77118013 47.20733827 264.33858041 41.97894287 265.90576172 C39.34391054 266.69565773 36.70893083 267.48572903 34.07397461 268.27587891 C33.20994711 268.53495907 32.34591961 268.79403923 31.45570946 269.06097031 C29.71844349 269.58200219 27.98123143 270.10321389 26.24407387 270.62460709 C21.97746544 271.90492294 17.70995805 273.18205251 13.4402771 274.4520874 C6.33474996 276.56872369 -0.76387313 278.69473612 -7.82130146 280.9675045 C-10.57378624 281.85336621 -13.33107494 282.72370386 -16.08869743 283.59341812 C-17.93736789 284.18450746 -19.77805593 284.80038679 -21.61830139 285.41720581 C-28.91364738 287.71172871 -33.82317262 288.11918838 -41.10546875 285.82421875 C-42.03415268 285.56327423 -42.96283661 285.30232971 -43.91966248 285.03347778 C-47.1254416 284.11940442 -50.3102098 283.14908128 -53.49609375 282.16796875 C-55.36442646 281.59930602 -57.23275954 281.03064451 -59.10110474 280.46202278 C-61.11446285 279.84827421 -63.12709117 279.23218511 -65.13952637 278.61541748 C-69.46813467 277.28893395 -73.79882335 275.96933395 -78.12988281 274.65087891 C-82.81785984 273.22353628 -87.50575698 271.79593731 -92.1930542 270.36636353 C-109.27291031 265.15787741 -126.36581408 259.99272268 -143.45935059 254.8293457 C-148.91352254 253.18178893 -154.36743681 251.53338035 -159.82128906 249.88476562 C-160.73281361 249.60922726 -161.64433815 249.33368889 -162.58348465 249.04980087 C-164.43055266 248.4914618 -166.27762017 247.93312109 -168.12468719 247.37477875 C-171.83359607 246.25365982 -175.54253958 245.13265551 -179.25148392 244.0116539 C-191.06234987 240.44190105 -202.873018 236.87149412 -214.68359375 233.30078125 C-216.01072451 232.89954827 -216.01072451 232.89954827 -217.36466599 232.49020958 C-221.82756578 231.14093311 -226.29046241 229.7916462 -230.75335693 228.44235229 C-239.69102765 225.74017304 -248.62871471 223.03804786 -257.56640625 220.3359375 C-258.45217976 220.06814295 -259.33795326 219.8003484 -260.25056839 219.52443886 C-272.90792226 215.69776834 -285.56537188 211.87141465 -298.2228775 208.04524612 C-334.73215466 197.00900645 -371.24046303 185.96958704 -407.74560547 174.91967773 C-426.04429254 169.38079121 -444.34370325 163.8443091 -462.64453125 158.3125 C-463.55402653 158.03758476 -464.4635218 157.76266953 -465.40057755 157.47942352 C-470.00799037 156.08674083 -474.61541282 154.69408998 -479.22283936 153.30145264 C-481.05871588 152.74654154 -482.89459234 152.19163024 -484.73046875 151.63671875 C-486.08030224 151.22871914 -486.08030224 151.22871914 -487.45740509 150.81247711 C-522.67850226 140.16645908 -557.89393772 129.5018321 -593.10546875 118.82421875 C-593.10546875 118.16421875 -593.10546875 117.50421875 -593.10546875 116.82421875 C-593.76546875 116.49421875 -594.42546875 116.16421875 -595.10546875 115.82421875 C-593.2467942 115.42222763 -593.2467942 115.42222763 -591.35057068 115.01211548 C-533.02829145 102.3974708 -474.71132792 89.7594451 -416.41796875 77.01171875 C-414.60526426 76.61532259 -414.60526426 76.61532259 -412.75593948 76.21091843 C-406.57134637 74.85847325 -400.38676927 73.50595487 -394.20219421 72.15342712 C-392.96507879 71.88287947 -391.72796337 71.61233181 -390.4533596 71.33358574 C-387.94687768 70.78543009 -385.44039905 70.23725935 -382.93392372 69.68907356 C-354.20450433 63.40590888 -325.47141448 57.13960998 -296.73777044 50.87579924 C-291.88514398 49.81794715 -287.03253275 48.76002526 -282.17993164 47.70205688 C-255.72263434 41.93382786 -229.26512838 36.1665564 -202.8073864 30.40036738 C-190.021489 27.61381297 -177.23566274 24.82693235 -164.44989014 22.03980541 C-156.6558277 20.34082305 -148.86171096 18.6420904 -141.06746578 16.94394654 C-137.72915184 16.21659981 -134.39087792 15.48907045 -131.05269623 14.76111698 C-124.6609248 13.36732887 -118.26877811 11.97531446 -111.87567139 10.58766174 C-100.99274393 8.22247774 -90.11528374 5.83972055 -79.25806522 3.35880852 C-74.6594782 2.30818632 -70.05853671 1.26807256 -65.45757103 0.22792435 C-62.32835141 -0.48496969 -59.20350008 -1.21506 -56.07844543 -1.94595337 C-35.80255922 -6.60140724 -20.09812293 -4.54820424 0 0 Z " fill="#FE3535" transform="translate(598.10546875,5.17578125)"/>
<path d="M0 0 C1.50119385 0.70527832 1.50119385 0.70527832 3.03271484 1.42480469 C43.94816169 20.82827715 84.63701373 48.40722231 111 86 C111.4837207 86.68771484 111.96744141 87.37542969 112.46582031 88.08398438 C116.1063231 93.30841713 119.6020999 98.614876 123 104 C123.40460449 104.64098633 123.80920898 105.28197266 124.22607422 105.94238281 C144.12863208 138.04109233 158.64501454 181.88550451 158 220 C150.45174871 218.51607902 143.37862472 216.1880492 136.1328125 213.625 C134.87136858 213.18292874 133.60976767 212.74130522 132.34802246 212.3000946 C128.97044708 211.11754692 125.59513482 209.92866501 122.22028351 208.73836899 C118.70712251 207.50034601 115.19206302 206.26773581 111.67724609 205.03442383 C105.93335642 203.01808779 100.19081971 200.99794111 94.44921875 198.97509766 C87.7177788 196.60355903 80.98386791 194.23913991 74.24880981 191.87789917 C69.49108857 190.20945311 64.73435391 188.53821058 59.97796631 186.8659668 C57.74470707 186.08104335 55.51118679 185.29686221 53.27740479 184.51342773 C50.19693887 183.43239197 47.11781107 182.34763407 44.0390625 181.26171875 C43.12862183 180.94297287 42.21818115 180.62422699 41.28015137 180.29582214 C40.46018677 180.00572769 39.64022217 179.71563324 38.79541016 179.41674805 C38.08164215 179.1655571 37.36787415 178.91436615 36.63247681 178.65556335 C35 178 35 178 34 177 C33.70353564 175.16149441 33.41295575 173.32185299 33.15161133 171.47802734 C28.98265537 142.55045532 16.49001509 115.27412198 -7 97 C-14.03517722 92.03742686 -21.42720009 88.16409788 -29.25 84.625 C-29.98210693 84.29113281 -30.71421387 83.95726562 -31.46850586 83.61328125 C-40.80587052 79.53284135 -51.33298371 76.88600589 -61.3125 80.1875 C-67.72515545 82.96158636 -70.98089923 87.96179847 -74 94 C-77.13141759 106.62867752 -73.9341216 117.59119678 -67.58764648 128.61425781 C-57.06578212 145.67225732 -38.47226822 157.11503842 -22.22265625 168.12890625 C-8.72817905 177.27569661 4.55147136 186.74333872 17.72607422 196.34375 C19.27320905 197.47063026 20.82176786 198.59555752 22.37158203 199.71875 C32.21429583 206.85536466 41.83799627 214.17194807 51.21875 221.90625 C54.86183484 224.90599747 58.58062623 227.79961251 62.3125 230.6875 C67.53312265 234.74651761 72.46584781 239.00352368 77.3046875 243.515625 C79.37480293 245.4237314 81.46892245 247.2629711 83.60546875 249.09375 C88.58542637 253.43747067 93.26556903 258.07950431 97.93579102 262.75048828 C99.42641615 264.23893237 100.92487017 265.71917277 102.42382812 267.19921875 C108.73148127 273.470074 114.49312266 280.00166198 120 287 C120.89311727 288.10686113 121.78632482 289.21364944 122.6796875 290.3203125 C129.36119109 298.85646833 135.33998882 307.7566134 141 317 C141.42812988 317.69689941 141.85625977 318.39379883 142.29736328 319.11181641 C153.34183763 337.34646028 160.98236089 357.31964434 166 378 C166.37027931 379.45203085 166.74137959 380.90385258 167.11328125 382.35546875 C170.77193507 397.02910966 172.364026 411.29500634 172.25 426.375 C172.24723053 427.09678436 172.24446106 427.81856873 172.24160767 428.56222534 C172.19392262 439.17339427 171.78069356 449.5199946 170 460 C169.82855469 461.27359375 169.65710938 462.5471875 169.48046875 463.859375 C165.6295502 489.00214645 151.86348366 516.70550649 131.38525391 532.22363281 C107.35164384 549.3993233 78.7299031 552.79544006 50.06835938 548.48071289 C-16.22495058 537.43386343 -84.52311763 501.03114741 -133 455 C-133.53415527 454.49452637 -134.06831055 453.98905273 -134.61865234 453.46826172 C-168.67196065 421.01389032 -191.63034758 374.16711236 -203 329 C-203.39843883 327.53350014 -203.79828667 326.06738268 -204.19921875 324.6015625 C-209.45229238 305.00622853 -212.40195698 285.26822164 -213 265 C-193.04721116 271.57043237 -173.15599137 278.29565379 -153.33288574 285.24789429 C-136.80042429 291.04539434 -120.22793335 296.71978724 -103.63476562 302.34106445 C-102.28319115 302.79974159 -102.28319115 302.79974159 -100.90431213 303.26768494 C-99.21573229 303.84063655 -97.52673771 304.4123678 -95.83726501 304.98268127 C-90.22461861 306.8876907 -90.22461861 306.8876907 -88 308 C-87.40917969 310.55004883 -87.40917969 310.55004883 -86.921875 313.95703125 C-86.73383301 315.20532715 -86.54579102 316.45362305 -86.35205078 317.73974609 C-86.20561127 318.73684601 -86.20561127 318.73684601 -86.05621338 319.75408936 C-80.82169618 354.94127141 -67.93077203 389.38215655 -39 412 C-21.03886114 424.9793802 -0.66334311 434.8102765 22 432 C29.53754419 429.96740381 34.6678001 425.36116258 39 419 C42.65807783 412.0163269 43.68452085 405.62777063 43.5625 397.8125 C43.55081787 396.80437256 43.53913574 395.79624512 43.52709961 394.75756836 C42.8478159 371.60084216 29.0509931 352.99608008 13.21484375 337.2265625 C6.20102215 330.67757444 -1.37984029 324.81827 -9 319 C-9.61472168 318.52836426 -10.22944336 318.05672852 -10.86279297 317.57080078 C-19.62837409 310.85968825 -28.57947013 304.44903551 -37.64038086 298.14355469 C-45.18830378 292.88664154 -52.63765681 287.51363224 -60 282 C-60.99845947 281.25266602 -60.99845947 281.25266602 -62.01708984 280.49023438 C-75.74131681 270.18342656 -89.2344294 259.54002361 -101.88671875 247.9296875 C-103.84907743 246.13781099 -105.85178635 244.40991 -107.875 242.6875 C-113.04240604 238.19364587 -117.80145215 233.27702534 -122.60986328 228.40673828 C-125.50068942 225.48138876 -128.40756649 222.5747782 -131.359375 219.7109375 C-137.3947217 213.81365429 -142.81743229 207.65488808 -148 201 C-148.45632812 200.42008301 -148.91265625 199.84016602 -149.3828125 199.24267578 C-161.1458845 184.23610967 -170.95606237 168.28716982 -179 151 C-179.78117187 149.33130859 -179.78117187 149.33130859 -180.578125 147.62890625 C-197.60638817 109.58418143 -205.09173707 61.8833368 -190 22 C-181.26186609 0.97250825 -167.25917297 -16.3904147 -145.8125 -25.3125 C-144.2156729 -25.89550957 -142.61137463 -26.45849401 -141 -27 C-140.17886719 -27.28617187 -139.35773438 -27.57234375 -138.51171875 -27.8671875 C-94.08596536 -42.37637601 -39.79004236 -18.75454226 0 0 Z " fill="#E4E4E4" transform="translate(302,347)"/>
<path d="M0 0 C-0.57141849 6.18105614 -1.28683798 12.30590579 -2.25 18.4375 C-3.25702657 24.97296204 -4.22006709 31.51319341 -5.1328125 38.0625 C-7.24890109 53.21073435 -9.50827015 68.29691578 -12.19482422 83.35717773 C-13.91196098 93.12921016 -15.22618444 102.93012632 -16.48071289 112.77075195 C-17.75700102 122.60500211 -19.39970255 132.34500276 -21.14453125 142.10546875 C-22.6612889 150.71283578 -23.89492862 159.3307796 -25 168 C-26.44094358 179.2973213 -28.22284316 190.49609789 -30.20825195 201.7097168 C-32.75458172 216.13495717 -34.78643898 230.61441635 -36.47265625 245.1640625 C-36.86635439 248.02785194 -37.33284633 250.81725635 -37.875 253.65234375 C-39.55316291 262.69539035 -40.69073633 271.82725898 -41.9375 280.9375 C-43.45253183 291.97199791 -44.97786726 303.00384189 -46.625 314.01953125 C-46.74733505 314.8400145 -46.8696701 315.66049774 -46.99571228 316.50584412 C-47.61367357 320.60271446 -48.27984295 324.68058575 -49.0625 328.75 C-50.03043393 333.83765275 -50.63741285 338.95922034 -51.25024414 344.09863281 C-51.82203226 348.80931736 -52.6022903 353.43688093 -53.5 358.09375 C-54.33969587 362.97448224 -54.87305449 367.89376054 -55.4375 372.8125 C-55.81621848 375.85986262 -56.33286622 378.85840258 -56.90625 381.875 C-58.3955164 389.87291216 -59.41312921 397.93972677 -60.5 406 C-62.92141139 423.95727477 -62.92141139 423.95727477 -64.58007812 432.68359375 C-65.20137592 436.11084576 -65.60288064 439.53938844 -66 443 C-66.22250484 444.93897077 -66.44786155 446.87867941 -66.74975586 448.80688477 C-67.06669771 451.06569063 -67.06669771 451.06569063 -66.87719727 453.61303711 C-66.95607935 457.03975863 -67.33502563 458.97592825 -69 462 C-74.19612583 466.32785563 -80.82638476 468.8133832 -86.9375 471.5625 C-88.70432685 472.39375978 -90.46914289 473.22930677 -92.23193359 474.0690918 C-95.65565711 475.69640465 -99.08666993 477.30608035 -102.52587891 478.90039062 C-107.48219785 481.20933784 -112.32388819 483.69709082 -117.125 486.3125 C-126.05814202 491.10315068 -135.13844898 495.59872872 -144.22314453 500.09301758 C-150.01014383 502.96516602 -155.72578046 505.88299765 -161.30615234 509.14135742 C-163 510 -163 510 -165 510 C-168.28398068 496.83250052 -171.17095722 483.59631874 -173.9375 470.3125 C-176.47234221 458.14433624 -179.09546428 446.00811389 -181.92602539 433.90454102 C-185.08920475 420.37799932 -187.99931021 406.79988885 -190.84375 393.203125 C-191.52063474 389.96870839 -192.1976963 386.7343289 -192.875 383.5 C-193.04608276 382.6827948 -193.21716553 381.8655896 -193.39343262 381.02362061 C-195.71395549 369.95275867 -198.1124532 358.9038466 -200.625 347.875 C-204.71466119 329.92339571 -208.56652947 311.92617263 -212.3046875 293.8984375 C-212.71235142 291.93651285 -213.12006648 289.97459884 -213.52783203 288.01269531 C-214.33259408 284.14052315 -215.13230046 280.26735188 -215.92919922 276.39355469 C-216.30158992 274.59827246 -216.6741413 272.80302355 -217.046875 271.0078125 C-217.21436249 270.18711273 -217.38184998 269.36641296 -217.55441284 268.52084351 C-218.44923229 264.23235256 -219.51142616 260.13207565 -221 256 C-221.09276718 256.55295746 -221.18553436 257.10591492 -221.28111267 257.67562866 C-225.5349805 283.01616508 -229.83718701 308.34480646 -234.4375 333.625 C-238.0100891 353.26400904 -241.39087277 372.93143643 -244.70236206 392.61605835 C-247.38722751 408.57185589 -250.13265641 424.51350254 -253 440.4375 C-256.40440443 459.3481333 -259.56836592 478.29554726 -262.7038269 497.25244141 C-265.39275495 513.49881739 -268.13514574 529.73224311 -271.0625 545.9375 C-271.2817363 547.15128326 -271.2817363 547.15128326 -271.50540161 548.3895874 C-272.32698283 552.92824308 -273.15238765 557.46612257 -274 562 C-274.11287354 562.91958496 -274.22574707 563.83916992 -274.34204102 564.78662109 C-275 567 -275 567 -276.64794922 568.3269043 C-277.35967285 568.65601807 -278.07139648 568.98513184 -278.8046875 569.32421875 C-280.00544922 569.89897949 -280.00544922 569.89897949 -281.23046875 570.48535156 C-282.10316406 570.88206055 -282.97585938 571.27876953 -283.875 571.6875 C-285.72751438 572.56961833 -287.57905683 573.45378032 -289.4296875 574.33984375 C-290.3690918 574.78440918 -291.30849609 575.22897461 -292.27636719 575.68701172 C-296.24357033 577.59949097 -300.11971352 579.66832137 -304 581.75 C-312.53051417 586.28826266 -321.16851139 590.60350062 -329.81994629 594.90484619 C-338.96279583 599.45283883 -348.03505705 604.11226832 -357.046875 608.9140625 C-359.82003857 610.38309712 -362.59787679 611.84193449 -365.390625 613.2734375 C-366.35790527 613.77109619 -366.35790527 613.77109619 -367.34472656 614.27880859 C-369 615 -369 615 -371 615 C-371.17950195 613.83210937 -371.35900391 612.66421875 -371.54394531 611.4609375 C-375.85958984 583.44124422 -380.38214993 555.46068485 -385.0625 527.5 C-385.19256439 526.72289043 -385.32262878 525.94578087 -385.45663452 525.14512253 C-386.10839244 521.25119674 -386.76029498 517.35729517 -387.41220093 513.46339417 C-387.53868389 512.70786318 -387.66516685 511.95233219 -387.79548264 511.17390633 C-388.04824021 509.66415946 -388.30102982 508.15441796 -388.55385208 506.64468193 C-390.65052308 494.12234901 -392.71877606 481.59562577 -394.75 469.0625 C-394.88465668 468.23164886 -395.01931335 467.40079773 -395.15805054 466.54476929 C-395.69415131 463.23557754 -396.22998726 459.92634317 -396.76527405 456.61701965 C-397.79757408 450.23834102 -398.83876398 443.86114041 -399.8828125 437.484375 C-404.47345969 409.44096629 -409.00223383 381.38795786 -413.50260925 353.32992554 C-414.93405781 344.40661093 -416.37153669 335.4842824 -417.8125 326.5625 C-420.04901363 312.70994189 -422.26627124 298.85434261 -424.47949219 284.99804688 C-426.47656295 272.49711303 -428.48243457 259.99764374 -430.5 247.5 C-432.02676 238.04261028 -433.5496513 228.58462575 -435.0625 219.125 C-435.22145752 218.13218018 -435.38041504 217.13936035 -435.54418945 216.11645508 C-436.40171446 210.7568146 -437.25415119 205.39640556 -438.1015625 200.03515625 C-438.28323975 198.88966309 -438.46491699 197.74416992 -438.65209961 196.56396484 C-439.00073755 194.3653042 -439.34797735 192.16642126 -439.69360352 189.96728516 C-439.85014404 188.98163574 -440.00668457 187.99598633 -440.16796875 186.98046875 C-440.30485107 186.11317139 -440.4417334 185.24587402 -440.58276367 184.35229492 C-440.96755788 182.01985201 -440.96755788 182.01985201 -441.54589844 179.83618164 C-442.42057727 176.29937547 -442.05325191 172.62113003 -442 169 C-432.15198357 164.80193266 -422.18512315 160.94875017 -412.1875 157.125 C-408.73809174 155.80387981 -405.28896579 154.48202345 -401.83984375 153.16015625 C-400.95785309 152.82235641 -400.07586243 152.48455658 -399.16714478 152.13652039 C-392.73094555 149.66955449 -386.30360599 147.18033158 -379.87890625 144.68359375 C-377.20178297 143.64549824 -374.52447313 142.60788565 -371.84707642 141.57049561 C-370.120147 140.90022759 -368.39388446 140.22823878 -366.66830444 139.55450439 C-364.26497812 138.61643177 -361.85934827 137.68451773 -359.453125 136.75390625 C-358.73931168 136.47340927 -358.02549835 136.19291229 -357.29005432 135.90391541 C-354.37200142 134.78119116 -352.15636726 134 -349 134 C-348.86537354 135.13199829 -348.86537354 135.13199829 -348.72802734 136.28686523 C-346.73523888 152.91535728 -344.5323679 169.49801082 -342.0625 186.0625 C-340.07756755 199.37936347 -338.22875127 212.70204107 -336.5625 226.0625 C-334.5811405 241.94135436 -332.32042704 257.77072657 -329.97891235 273.60021973 C-327.93759399 287.40795221 -326.0148637 301.21917634 -324.27929688 315.06860352 C-323.34962639 322.44456449 -322.29437503 329.78238263 -321.07543945 337.11572266 C-319.84747064 344.62473932 -318.95329495 352.17347978 -318.08959961 359.73217773 C-317.91956421 361.16992554 -317.91956421 361.16992554 -317.74609375 362.63671875 C-317.64997803 363.47936279 -317.5538623 364.32200684 -317.45483398 365.19018555 C-316.8602521 368.86331647 -315.93680169 372.39889112 -315 376 C-314.82984375 374.94353271 -314.6596875 373.88706543 -314.484375 372.79858398 C-310.11976181 345.72774544 -305.5996052 318.68615979 -300.96875 291.65966797 C-300.04824036 286.28548237 -299.13276075 280.91045043 -298.21875 275.53515625 C-294.37237191 252.92441 -290.4608508 230.32534042 -286.52113342 207.73068237 C-285.68310147 202.92358949 -284.8461173 198.11631875 -284.01171875 193.30859375 C-283.84960403 192.37550888 -283.68748932 191.44242401 -283.52046204 190.48106384 C-283.19387623 188.59528828 -282.86916379 186.70918733 -282.54631042 184.82276917 C-281.73402892 180.09204065 -280.88889698 175.37192222 -279.97387695 170.65991211 C-278.20871627 161.38354974 -276.8574917 152.36497082 -276.47071838 142.91777039 C-275.00684795 108.49310603 -275.00684795 108.49310603 -265.74572754 99.91101074 C-253.21254696 91.05513575 -237.44111892 87.59272233 -222.79248047 83.8515625 C-213.54769229 81.43553971 -204.79771108 77.89256809 -195.96807861 74.27990723 C-191.99620719 72.66341562 -187.99933287 71.11493376 -183.99609375 69.578125 C-183.32357071 69.31374634 -182.65104767 69.04936768 -181.95814514 68.77697754 C-179.13763971 67.69066948 -177.05374415 67 -174 67 C-173.87995605 67.61069336 -173.75991211 68.22138672 -173.63623047 68.85058594 C-169.69471491 88.85108915 -165.7299303 108.87041919 -160.9375 128.6875 C-159.07041042 136.41680792 -157.53353224 144.2035586 -155.99584961 152.00415039 C-153.70405885 163.59163207 -151.22032663 175.13595367 -148.71875 186.6796875 C-148.04863808 189.77531321 -147.38296356 192.87185428 -146.71875 195.96875 C-144.62788204 205.68807762 -142.45331205 215.38246837 -140.1875 225.0625 C-136.66249261 240.15171949 -133.52251524 255.32125731 -130.36204529 270.49009705 C-128.93490852 277.33254332 -127.47386134 284.16745719 -126 291 C-124.22699181 289.22699181 -124.49571338 286.60807102 -124.21557617 284.19628906 C-123.99480659 282.32472137 -123.99480659 282.32472137 -123.76957703 280.41534424 C-123.65344338 279.40415401 -123.65344338 279.40415401 -123.53496361 278.37253571 C-123.28985361 276.23850327 -123.03952773 274.10513804 -122.78791809 271.97186279 C-122.34032374 268.16934171 -121.89742437 264.36629037 -121.45599365 260.56304932 C-120.67781571 253.85911446 -119.89473953 247.155763 -119.10546875 240.453125 C-119.01917143 239.7191342 -118.93287411 238.98514339 -118.84396172 238.22891045 C-117.48457706 226.70070055 -115.96614087 215.20296649 -114.34976196 203.70783997 C-113.12138485 194.96229967 -112.03924386 186.21450204 -111.0625 177.4375 C-109.7162631 165.59812524 -108.17649782 153.79691705 -106.5 142 C-104.6307565 128.83828282 -102.96957443 115.66601775 -101.45141602 102.45947266 C-100.22002096 91.76058624 -98.8817747 81.07933497 -97.48217773 70.40112305 C-95.93690786 58.60713896 -94.4680373 46.80381464 -93 35 C-92.39089783 34.76799896 -91.78179565 34.53599792 -91.15423584 34.29696655 C-83.985529 31.56616124 -76.81754826 28.83345483 -69.64999008 26.09963608 C-67.75926769 25.3785346 -65.86848164 24.65760023 -63.97769165 23.93667603 C-51.43910315 19.15526625 -38.90197459 14.37089394 -26.40234375 9.48828125 C-25.55243866 9.15638794 -24.70253357 8.82449463 -23.82687378 8.48254395 C-19.94515639 6.9652172 -16.06558132 5.44264714 -12.18847656 3.91357422 C-10.83790458 3.38375348 -9.48731955 2.85396601 -8.13671875 2.32421875 C-6.98905029 1.87135498 -5.84138184 1.41849121 -4.65893555 0.9519043 C-2 0 -2 0 0 0 Z " fill="#FEFEFE" transform="translate(1080,287)"/>
</svg>
