<?xml version="1.0" encoding="UTF-8"?>
<svg version="1.1" xmlns="http://www.w3.org/2000/svg" width="512" height="512">
<path d="M0 0 C2.38774903 2.3658932 2.96491158 3.6388232 3.29296875 7.015625 C3.25816406 8.08296875 3.22335938 9.1503125 3.1875 10.25 C3.14689453 11.86648437 3.14689453 11.86648437 3.10546875 13.515625 C3.07066406 14.33546875 3.03585938 15.1553125 3 16 C4.1164238 15.99333817 5.2328476 15.98667633 6.38310242 15.97981262 C16.90355743 15.91900156 27.42397679 15.87402733 37.94456768 15.84456348 C43.35333773 15.82890661 48.7619659 15.80766774 54.1706543 15.77368164 C59.39019478 15.74108927 64.60959878 15.72314715 69.82923317 15.71536827 C71.82074952 15.70982457 73.81225839 15.69899912 75.80371666 15.68280983 C78.59286017 15.66103733 81.38143949 15.65803302 84.1706543 15.65942383 C84.99424438 15.648638 85.81783447 15.63785217 86.66638184 15.6267395 C92.45936933 15.65800343 95.80375124 16.80375124 100 21 C100.45993557 25.67601163 100.67058528 27.91318937 98.1875 31.9375 C94.12057213 35.77203199 89.66431817 35.13631712 84.39770508 35.11352539 C83.51944565 35.11367142 82.64118622 35.11381744 81.73631287 35.1139679 C78.83069395 35.11327072 75.92513898 35.10548739 73.01953125 35.09765625 C71.00599706 35.09579138 68.99246242 35.0943678 66.97892761 35.09336853 C61.67708078 35.08954879 56.37526131 35.07972312 51.07342529 35.06866455 C45.66418833 35.05843877 40.25494696 35.0538684 34.84570312 35.04882812 C24.23045673 35.03810039 13.61523064 35.02103046 3 35 C3 37.64 3 40.28 3 43 C4.051875 42.896875 5.10375 42.79375 6.1875 42.6875 C10 43 10 43 12.5625 44.75 C13.734375 46.16015625 13.734375 46.16015625 15 48 C15.81210937 49.17369141 15.81210937 49.17369141 16.640625 50.37109375 C22.01082717 59.41762591 21.60946768 67.84220533 21 78 C30.85769716 78.8658892 30.85769716 78.8658892 39.95214844 75.74121094 C42.93809749 73.13644687 45.44309385 70.23770245 47.97265625 67.19921875 C53.775145 60.56600493 61.00495055 59.30265119 69.4375 58.4375 C70.48349365 58.32237061 71.5294873 58.20724121 72.60717773 58.08862305 C74.88804954 57.84238785 77.16975939 57.60382059 79.45214844 57.37207031 C82.96604456 57.00356098 86.46980514 56.57912603 89.9765625 56.1484375 C126.57681221 51.93731893 163.76245208 52.82814519 200.375 56.3125 C201.50973755 56.41900879 202.6444751 56.52551758 203.81359863 56.63525391 C207.0313078 56.94491333 210.24624844 57.27380843 213.4609375 57.61328125 C214.86824631 57.75416924 214.86824631 57.75416924 216.3039856 57.89790344 C227.98615245 59.21575141 236.18100686 62.45327001 243.8125 71.6875 C247.74952731 76.0685369 250.94879899 77.65864096 256.84057617 78.12231445 C260.24433385 78.21685344 263.59846631 78.17147239 267 78 C266.9071875 76.87464844 266.814375 75.74929687 266.71875 74.58984375 C266.054174 62.80039459 268.0721532 54.6433508 275 45 C278.6441774 42.5705484 280.71241272 42.83820425 285 43 C285 40.36 285 37.72 285 35 C283.8835762 35.00666183 282.7671524 35.01332367 281.61689758 35.02018738 C271.09644257 35.08099844 260.57602321 35.12597267 250.05543232 35.15543652 C244.64666227 35.17109339 239.2380341 35.19233226 233.8293457 35.22631836 C228.60980522 35.25891073 223.39040122 35.27685285 218.17076683 35.28463173 C216.17925048 35.29017543 214.18774161 35.30100088 212.19628334 35.31719017 C209.40713983 35.33896267 206.61856051 35.34196698 203.8293457 35.34057617 C203.00575562 35.351362 202.18216553 35.36214783 201.33361816 35.3732605 C196.73186295 35.34842548 193.72721823 34.99558428 190 32 C187.55205258 28.32807887 187.28564113 25.26893972 188 21 C190.20740681 18.03141843 191.48597373 17.17134209 195 16 C197.87570901 15.90845376 200.72673286 15.87403036 203.60229492 15.88647461 C204.91968407 15.88625557 204.91968407 15.88625557 206.26368713 15.8860321 C209.16930605 15.88672928 212.07486102 15.89451261 214.98046875 15.90234375 C216.99400294 15.90420862 219.00753758 15.9056322 221.02107239 15.90663147 C226.32291922 15.91045121 231.62473869 15.92027688 236.92657471 15.93133545 C242.33581167 15.94156123 247.74505304 15.9461316 253.15429688 15.95117188 C263.76954327 15.96189961 274.38476936 15.97896954 285 16 C284.96193237 14.75609497 284.96193237 14.75609497 284.9230957 13.48706055 C284.90335693 12.40207275 284.88361816 11.31708496 284.86328125 10.19921875 C284.82521362 8.58406372 284.82521362 8.58406372 284.78637695 6.9362793 C285 4 285 4 287.1875 0.8125 C290.07506452 -1.04837492 291.57491066 -2 295 -2 C298.93614016 -0.45641562 300.63226576 0.44839864 303 4 C303.1953125 6.91796875 303.1953125 6.91796875 303.125 10.1875 C303.10695313 11.27417969 303.08890625 12.36085938 303.0703125 13.48046875 C303.03550781 14.72763672 303.03550781 14.72763672 303 16 C304.13117249 15.99555878 305.26234497 15.99111755 306.42779541 15.98654175 C317.08102606 15.94602202 327.7342411 15.91602825 338.38753128 15.89637566 C343.86466938 15.88593247 349.34174533 15.87176344 354.81884766 15.84912109 C360.10321413 15.82741189 365.38752078 15.8154354 370.67192841 15.81024551 C372.68937878 15.80654631 374.70682584 15.79932282 376.72425079 15.78853989 C379.54703381 15.77405061 382.36956868 15.77202099 385.19238281 15.77294922 C386.44718697 15.76216339 386.44718697 15.76216339 387.7273407 15.75115967 C395.01704083 15.7771479 395.01704083 15.7771479 398 18 C400.67089167 22.00633751 400.70693873 25.28991428 400 30 C397.80168636 33.03215675 396.55036806 33.81654398 393 35 C390.12429099 35.09154624 387.27326714 35.12596964 384.39770508 35.11352539 C383.51944565 35.11367142 382.64118622 35.11381744 381.73631287 35.1139679 C378.83069395 35.11327072 375.92513898 35.10548739 373.01953125 35.09765625 C371.00599706 35.09579138 368.99246242 35.0943678 366.97892761 35.09336853 C361.67708078 35.08954879 356.37526131 35.07972312 351.07342529 35.06866455 C345.66418833 35.05843877 340.25494696 35.0538684 334.84570312 35.04882812 C324.23045673 35.03810039 313.61523064 35.02103046 303 35 C303 37.64 303 40.28 303 43 C304.051875 42.9175 305.10375 42.835 306.1875 42.75 C310.70206755 43.04603722 311.75336361 43.97425817 315 47 C322.3014188 56.51876942 321.64119765 66.64842674 321 78 C321.80824219 77.94199219 322.61648438 77.88398438 323.44921875 77.82421875 C332.18321044 77.45547362 332.18321044 77.45547362 336.1875 80.125 C338.20418281 83.32387618 339 85.21641568 339 89 C337.6260627 91.87872577 336.25010563 93.74989437 334 96 C330.89023201 97.076706 328.01798101 97.09857954 324.74755859 97.04663086 C323.69901703 97.03429916 322.65047546 97.02196747 321.57015991 97.00926208 C320.44099152 96.99460403 319.31182312 96.97994598 318.1484375 96.96484375 C315.74609912 96.95881199 313.34375214 96.95564839 310.94140625 96.95507812 C307.16170434 96.95336253 303.38514865 96.93767289 299.60595703 96.87329102 C285.31413038 95.8547348 285.31413038 95.8547348 272.2331543 100.18969727 C269.80222446 102.66656593 267.97668271 105.16429559 266 108 C260.68870171 111.70047809 255.64769012 114.13725873 249.11328125 114.09765625 C248.17548828 114.09443359 247.23769531 114.09121094 246.27148438 114.08789062 C244.80678711 114.07532227 244.80678711 114.07532227 243.3125 114.0625 C242.32443359 114.05798828 241.33636719 114.05347656 240.31835938 114.04882812 C237.87884526 114.03704303 235.43945311 114.02059011 233 114 C233.01960564 119.19280423 233.07187742 124.38395721 233.15258789 129.57617188 C233.17558091 131.33714772 233.19011906 133.09825744 233.19555664 134.859375 C233.23548019 145.66944261 233.87268505 154.23514921 239 164 C239.62807084 165.41335395 240.24400673 166.83220723 240.84375 168.2578125 C241.11791748 168.89299805 241.39208496 169.52818359 241.67456055 170.18261719 C255.63521891 203.03413979 259.05477783 240.51007986 259.35009766 275.88061523 C259.36688493 277.35147673 259.39446157 278.82224967 259.43212891 280.29272461 C259.4868555 282.45728035 259.50872646 284.62000302 259.5234375 286.78515625 C259.54325684 288.05238525 259.56307617 289.31961426 259.58349609 290.62524414 C258.84576403 294.89205179 257.32323178 296.32128317 254 299 C250.5387042 300.42001879 249.33003686 300.12942622 245.8125 298.75 C243 297 243 297 241 294 C239.96152046 288.18721191 239.84649795 282.40489048 239.7097168 276.51025391 C238.84405351 239.36406839 235.35727119 201.50985785 219.02075195 167.64379883 C214.82256335 158.90260693 213.70121757 151.69171238 213.875 142 C213.88402344 141.03449219 213.89304687 140.06898438 213.90234375 139.07421875 C213.92569209 136.71603674 213.96155461 134.3579842 214 132 C209.71 132 205.42 132 201 132 C200.34 133.32 199.68 134.64 199 136 C197.34375 137.88671875 197.34375 137.88671875 195.5 139.6875 C194.8915625 140.28949219 194.283125 140.89148438 193.65625 141.51171875 C192 143 192 143 190 144 C189.97812622 144.85380249 189.97812622 144.85380249 189.95581055 145.72485352 C189.88070835 148.33803828 189.78425811 150.95003099 189.6875 153.5625 C189.66494141 154.45775391 189.64238281 155.35300781 189.61914062 156.27539062 C189.3450655 163.07743682 188.65570139 168.53861823 183.4375 173.375 C179.32213288 176.11857808 175.90476136 176.68374926 171 176 C167.85655565 174.25364203 165.53137274 172.53137274 163 170 C162.67 186.17 162.34 202.34 162 219 C176.91361639 218.88141064 176.91361639 218.88141064 191.8269043 218.72973633 C193.7010039 218.72097184 195.57510923 218.71332781 197.44921875 218.70703125 C198.90068298 218.6840094 198.90068298 218.6840094 200.38146973 218.66052246 C209.06358254 218.65714989 209.06358254 218.65714989 213 222 C215.28588467 225.42882701 215.26525359 226.73143117 215.30639648 230.76904297 C215.32238388 231.95392303 215.33837128 233.1388031 215.35484314 234.35958862 C215.36288719 236.28147507 215.36288719 236.28147507 215.37109375 238.2421875 C215.38012222 239.55784698 215.3891507 240.87350647 215.39845276 242.22903442 C215.41493887 245.01485648 215.42264207 247.80055843 215.42553711 250.58642578 C215.43091923 254.15000008 215.46859089 257.71243984 215.51428127 261.27569389 C215.55124422 264.68118669 215.55256753 268.08650089 215.55859375 271.4921875 C215.57812607 272.76939667 215.59765839 274.04660583 215.61778259 275.36251831 C215.56753196 285.21122577 215.56753196 285.21122577 212.65258789 288.28173828 C207.97827552 291.30960855 203.78864866 291.15388296 198.40112305 291.16113281 C197.5227478 291.16609772 196.64437256 291.17106262 195.73937988 291.17617798 C192.83015156 291.19079666 189.92097778 291.19760127 187.01171875 291.203125 C184.99013772 291.20887688 182.96855671 291.21463461 180.94697571 291.22039795 C176.7059402 291.23090723 172.46492365 291.23675032 168.22387695 291.24023438 C162.79318537 291.24571767 157.36274469 291.26974256 151.93213177 291.29820633 C147.75508394 291.31684319 143.57809641 291.32203888 139.40101051 291.32357025 C137.39916424 291.32659514 135.39731899 291.33461815 133.39551353 291.34775543 C130.59250254 291.36483701 127.79010268 291.36293043 124.98706055 291.35644531 C124.16242813 291.3656601 123.33779572 291.37487488 122.48817444 291.3843689 C117.59759146 291.34897858 114.23612294 290.71434372 110 288 C107.5800281 284.0519887 107.79009935 280.22968501 107.875 275.6875 C107.89304688 274.43324219 107.91109375 273.17898438 107.9296875 271.88671875 C107.95289063 270.93410156 107.97609375 269.98148437 108 269 C105.10275937 269.08724816 102.20849865 269.19415927 99.3125 269.3125 C98.49587891 269.33505859 97.67925781 269.35761719 96.83789062 269.38085938 C91.89773544 269.60086629 89.24128562 270.36221189 85 273 C81.40625 273.43359375 81.40625 273.43359375 77.5 273.4375 C75.56640625 273.46650391 75.56640625 273.46650391 73.59375 273.49609375 C69.48573758 272.92900943 67.85921531 271.94989938 65 269 C63.47906566 264.43719699 63.77460517 259.90455432 63.75 255.125 C63.7190625 253.63419922 63.7190625 253.63419922 63.6875 252.11328125 C63.63806005 242.88036995 63.63806005 242.88036995 67 239 C70.71564838 236.52290108 73.637421 236.66825166 77.9375 236.6875 C79.01161133 236.66333008 79.01161133 236.66333008 80.10742188 236.63867188 C85.52219894 236.63365355 85.52219894 236.63365355 87.92578125 238.4765625 C91.32049859 240.96985772 95.14323237 240.57520557 99.25 240.6875 C100.09046875 240.72166016 100.9309375 240.75582031 101.796875 240.79101562 C103.86412204 240.87323568 105.93203874 240.93830157 108 241 C107.96519531 240.05898438 107.93039063 239.11796875 107.89453125 238.1484375 C107.86746094 236.90320313 107.84039062 235.65796875 107.8125 234.375 C107.77769531 233.14523437 107.74289063 231.91546875 107.70703125 230.6484375 C108.02782227 226.65351994 108.81746519 224.34491853 111 221 C115 219 115 219 126 219 C125.67 202.83 125.34 186.66 125 170 C123.02 171.65 121.04 173.3 119 175 C115.78548618 176.60725691 112.48666924 176.47397924 109 176 C104.60002868 173.67548685 100.94919472 171.057436 99.42797852 166.1574707 C98.97251142 163.86142809 98.92166685 161.81909526 98.96484375 159.48046875 C99.31019611 149.95098916 99.31019611 149.95098916 96.26171875 141.234375 C94.24900739 139.54178409 92.28979526 138.27854327 90 137 C88.2421875 135.47265625 88.2421875 135.47265625 87 134 C87 133.34 87 132.68 87 132 C82.71 132 78.42 132 74 132 C74.04640625 133.36511719 74.0928125 134.73023438 74.140625 136.13671875 C74.47493491 150.03536711 72.82584758 160.26650227 66.6875 172.875 C51.39209516 204.33533729 48.94811078 241.89902272 48.37817383 276.33447266 C48.08129652 290.84083542 48.08129652 290.84083542 46 296 C43.12425755 298.56220386 40.88847047 299.81483474 37 300 C33.06385984 298.45641562 31.36773424 297.55160136 29 294 C28.53135816 289.14362086 28.6632225 284.25170922 28.6875 279.375 C28.68899048 278.64636749 28.69048096 277.91773499 28.6920166 277.16702271 C28.84083875 236.35365974 34.06357725 194.6780287 51.80078125 157.57421875 C54.02586365 152.7979018 54.21025167 148.57582783 54.31640625 143.39453125 C54.3475779 142.13572395 54.3475779 142.13572395 54.37937927 140.85148621 C54.44474018 138.17190706 54.50369714 135.49223031 54.5625 132.8125 C54.60569802 130.99543263 54.64931273 129.17837512 54.69335938 127.36132812 C54.8004078 122.90765201 54.90171319 118.45387774 55 114 C54.11646851 114.0314209 54.11646851 114.0314209 53.21508789 114.06347656 C50.49773839 114.1475869 47.78066391 114.19895467 45.0625 114.25 C44.13630859 114.28351563 43.21011719 114.31703125 42.25585938 114.3515625 C32.9630122 114.48198843 26.3853254 111.90247138 19.625 105.4375 C18.81289062 104.67308594 18.00078125 103.90867187 17.1640625 103.12109375 C15 101 15 101 13.69088745 99.39247131 C11.35180322 97.46620017 9.78861524 97.61562744 6.78173828 97.59936523 C5.18460495 97.57935707 5.18460495 97.57935707 3.5552063 97.5589447 C2.40519135 97.55882889 1.25517639 97.55871307 0.0703125 97.55859375 C-1.11217072 97.54538589 -2.29465393 97.53217804 -3.51296997 97.51856995 C-7.30033703 97.47759059 -11.08746106 97.455984 -14.875 97.4375 C-18.6553232 97.4137138 -22.43541732 97.38557001 -26.21560669 97.34571838 C-28.56942784 97.32137099 -30.92337027 97.30650466 -33.27731323 97.30210876 C-34.34837311 97.29192215 -35.41943298 97.28173553 -36.52294922 97.27124023 C-37.46210175 97.26696518 -38.40125427 97.26269012 -39.36886597 97.25828552 C-42.95906127 96.90585366 -45.81634165 95.84547025 -48.75 93.75 C-50.61033153 91.14553585 -50.8750279 89.18678861 -51 86 C-49.47126129 82.02527937 -48.57219503 80.38146335 -45 78 C-42.08203125 77.8046875 -42.08203125 77.8046875 -38.8125 77.875 C-37.72582031 77.89304687 -36.63914062 77.91109375 -35.51953125 77.9296875 C-34.68808594 77.95289063 -33.85664062 77.97609375 -33 78 C-33.08121094 76.77925781 -33.16242188 75.55851562 -33.24609375 74.30078125 C-33.75964641 63.13896422 -33.11851661 55.14411077 -26 46 C-23.08369997 43.3286236 -22.3547647 43.01773823 -18.25 42.8125 C-17.1775 42.874375 -16.105 42.93625 -15 43 C-15 40.36 -15 37.72 -15 35 C-16.1164238 35.00666183 -17.2328476 35.01332367 -18.38310242 35.02018738 C-28.90355743 35.08099844 -39.42397679 35.12597267 -49.94456768 35.15543652 C-55.35333773 35.17109339 -60.7619659 35.19233226 -66.1706543 35.22631836 C-71.39019478 35.25891073 -76.60959878 35.27685285 -81.82923317 35.28463173 C-83.82074952 35.29017543 -85.81225839 35.30100088 -87.80371666 35.31719017 C-90.59286017 35.33896267 -93.38143949 35.34196698 -96.1706543 35.34057617 C-96.99424438 35.351362 -97.81783447 35.36214783 -98.66638184 35.3732605 C-104.45936933 35.34199657 -107.80375124 34.19624876 -112 30 C-112.50421994 26.96295432 -112.45467228 24.04197406 -112 21 C-110.12379387 18.49839182 -108.76108697 17.38054348 -106 16 C-103.13168448 15.90665568 -100.28781736 15.87425189 -97.41943359 15.88647461 C-96.53156662 15.88632858 -95.64369965 15.88618256 -94.72892761 15.8860321 C-91.78540631 15.88673045 -88.84194779 15.89451919 -85.8984375 15.90234375 C-83.86105382 15.90420821 -81.82366969 15.90563198 -79.7862854 15.90663147 C-74.41702034 15.91045445 -69.04778223 15.92028289 -63.67852783 15.93133545 C-58.2023556 15.94155426 -52.72617902 15.9461301 -47.25 15.95117188 C-36.49998815 15.96190533 -25.74999631 15.97897915 -15 16 C-15.02682861 15.17072998 -15.05365723 14.34145996 -15.08129883 13.48706055 C-15.10216553 12.40207275 -15.12303223 11.31708496 -15.14453125 10.19921875 C-15.17135986 9.12244873 -15.19818848 8.04567871 -15.22583008 6.9362793 C-15 4 -15 4 -12.6875 0.8125 C-7.84113235 -2.45598051 -5.37899658 -2.01712372 0 0 Z " fill="#D7DDEC" transform="translate(112,107)"/>
<path d="M0 0 C0.61858887 0.28258667 1.23717773 0.56517334 1.87451172 0.85632324 C9.99771224 4.22199801 17.42532745 4.58965123 26.125 4.53125 C27.56266542 4.53395315 29.00032903 4.53784236 30.43798828 4.54284668 C33.4334474 4.54870324 36.42842548 4.54030487 39.42382812 4.52148438 C43.23310657 4.49869625 47.04125716 4.51184031 50.85049438 4.53577423 C53.81396745 4.55033756 56.77718003 4.54557858 59.74066162 4.53526306 C61.14386128 4.53262471 62.54708583 4.53576174 63.95025635 4.54518127 C71.93406743 4.58703588 78.54041731 4.0005998 85.93017578 0.85632324 C88 0 88 0 90 0 C90.08797281 3.18732254 90.14071341 6.37432788 90.1875 9.5625 C90.21263672 10.45775391 90.23777344 11.35300781 90.26367188 12.27539062 C90.3265345 17.99588977 89.77266497 21.96058286 87 27 C82.73839402 30.94978115 79.97602719 32.34637297 74.1015625 32.29296875 C69.8384251 31.69866521 66.94314353 28.94314353 64 26 C63.67 42.17 63.34 58.34 63 75 C77.91361639 74.88141064 77.91361639 74.88141064 92.8269043 74.72973633 C94.7010039 74.72097184 96.57510923 74.71332781 98.44921875 74.70703125 C99.90068298 74.6840094 99.90068298 74.6840094 101.38146973 74.66052246 C110.06358254 74.65714989 110.06358254 74.65714989 114 78 C116.28588467 81.42882701 116.26525359 82.73143117 116.30639648 86.76904297 C116.32238388 87.95392303 116.33837128 89.1388031 116.35484314 90.35958862 C116.36020584 91.64084625 116.36556854 92.92210388 116.37109375 94.2421875 C116.38012222 95.55784698 116.3891507 96.87350647 116.39845276 98.22903442 C116.41493887 101.01485648 116.42264207 103.80055843 116.42553711 106.58642578 C116.43091923 110.15000008 116.46859089 113.71243984 116.51428127 117.27569389 C116.55124422 120.68118669 116.55256753 124.08650089 116.55859375 127.4921875 C116.57812607 128.76939667 116.59765839 130.04660583 116.61778259 131.36251831 C116.56753196 141.21122577 116.56753196 141.21122577 113.65258789 144.28173828 C108.97827552 147.30960855 104.78864866 147.15388296 99.40112305 147.16113281 C98.5227478 147.16609772 97.64437256 147.17106262 96.73937988 147.17617798 C93.83015156 147.19079666 90.92097778 147.19760127 88.01171875 147.203125 C85.99013772 147.20887688 83.96855671 147.21463461 81.94697571 147.22039795 C77.7059402 147.23090723 73.46492365 147.23675032 69.22387695 147.24023438 C63.79318537 147.24571767 58.36274469 147.26974256 52.93213177 147.29820633 C48.75508394 147.31684319 44.57809641 147.32203888 40.40101051 147.32357025 C38.39916424 147.32659514 36.39731899 147.33461815 34.39551353 147.34775543 C31.59250254 147.36483701 28.79010268 147.36293043 25.98706055 147.35644531 C25.16242813 147.3656601 24.33779572 147.37487488 23.48817444 147.3843689 C18.59759146 147.34897858 15.23612294 146.71434372 11 144 C8.5800281 140.0519887 8.79009935 136.22968501 8.875 131.6875 C8.89304688 130.43324219 8.91109375 129.17898438 8.9296875 127.88671875 C8.95289063 126.93410156 8.97609375 125.98148437 9 125 C6.10275937 125.08724816 3.20849865 125.19415927 0.3125 125.3125 C-0.50412109 125.33505859 -1.32074219 125.35761719 -2.16210938 125.38085938 C-7.10226456 125.60086629 -9.75871438 126.36221189 -14 129 C-17.59375 129.43359375 -17.59375 129.43359375 -21.5 129.4375 C-22.7890625 129.45683594 -24.078125 129.47617187 -25.40625 129.49609375 C-29.51426242 128.92900943 -31.14078469 127.94989938 -34 125 C-35.52093434 120.43719699 -35.22539483 115.90455432 -35.25 111.125 C-35.270625 110.13113281 -35.29125 109.13726562 -35.3125 108.11328125 C-35.36193995 98.88036995 -35.36193995 98.88036995 -32 95 C-28.28435162 92.52290108 -25.362579 92.66825166 -21.0625 92.6875 C-20.34642578 92.67138672 -19.63035156 92.65527344 -18.89257812 92.63867188 C-13.47780106 92.63365355 -13.47780106 92.63365355 -11.07421875 94.4765625 C-7.67950141 96.96985772 -3.85676763 96.57520557 0.25 96.6875 C1.09046875 96.72166016 1.9309375 96.75582031 2.796875 96.79101562 C4.86412204 96.87323568 6.93203874 96.93830157 9 97 C8.96519531 96.05898438 8.93039063 95.11796875 8.89453125 94.1484375 C8.86746094 92.90320313 8.84039062 91.65796875 8.8125 90.375 C8.76029297 88.53035156 8.76029297 88.53035156 8.70703125 86.6484375 C9.02782227 82.65351994 9.81746519 80.34491853 12 77 C16 75 16 75 27 75 C26.67 58.83 26.34 42.66 26 26 C24.02 27.65 22.04 29.3 20 31 C16.78548618 32.60725691 13.48666924 32.47397924 10 32 C5.60884596 29.68014503 1.95270768 27.06405855 0.43188477 22.17285156 C-0.03916959 19.8029342 -0.11314046 17.64991236 -0.09765625 15.234375 C-0.09443359 14.34492188 -0.09121094 13.45546875 -0.08789062 12.5390625 C-0.07532227 11.15847656 -0.07532227 11.15847656 -0.0625 9.75 C-0.05798828 8.81414062 -0.05347656 7.87828125 -0.04882812 6.9140625 C-0.03706916 4.60930625 -0.01976857 2.30469727 0 0 Z " fill="#949BB2" transform="translate(211,251)"/>
<path d="M0 0 C1.95168343 0.00022659 1.95168343 0.00022659 3.9427948 0.00045776 C5.36331332 0.01067109 6.78383028 0.02110308 8.2043457 0.03173828 C9.65737209 0.03546895 11.11040099 0.03831567 12.56343079 0.04031372 C16.38574177 0.04794597 20.20790049 0.06759087 24.03015137 0.08972168 C27.93129415 0.11018895 31.83246156 0.11931732 35.73364258 0.12939453 C43.38670674 0.15083722 51.03964551 0.18496814 58.69262695 0.22705078 C58.7905957 1.11908203 58.88856445 2.01111328 58.98950195 2.93017578 C59.1390332 4.10064453 59.28856445 5.27111328 59.44262695 6.47705078 C59.65145508 8.21728516 59.65145508 8.21728516 59.86450195 9.99267578 C60.81827712 13.71779767 61.5179915 15.07181689 64.69262695 17.22705078 C68.07923001 17.84500322 68.07923001 17.84500322 71.93969727 17.77294922 C73.02321976 17.78845573 73.02321976 17.78845573 74.12863159 17.80427551 C76.50956582 17.8337074 78.8896501 17.83520268 81.27075195 17.83642578 C82.9241498 17.85140727 84.57753267 17.86813435 86.230896 17.88653564 C90.57756232 17.93022536 94.92402678 17.95021171 99.27087402 17.965271 C103.70845484 17.98483633 108.14581746 18.02680695 112.58325195 18.06689453 C121.28631988 18.14221416 129.98930217 18.19249484 138.69262695 18.22705078 C139.09094727 19.28666016 139.48926758 20.34626953 139.8996582 21.43798828 C140.43430883 22.82620395 140.96949296 24.21421424 141.50512695 25.60205078 C141.76616211 26.30072266 142.02719727 26.99939453 142.29614258 27.71923828 C143.71094456 31.35231005 144.36965492 33.01173609 147.69262695 35.22705078 C149.94906087 35.48053599 152.16931026 35.54041268 154.4387207 35.59033203 C157.98001348 36.5907319 158.78684543 38.06360777 160.69262695 41.22705078 C162.41645897 46.20327084 163.65707277 51.3135176 164.96020508 56.41259766 C166.6197418 62.54566813 168.13632395 66.73326995 172.69262695 71.22705078 C143.72207186 72.36914569 143.72207186 72.36914569 132.13012695 62.60205078 C130.96624318 61.49573546 129.81855591 60.37197131 128.69262695 59.22705078 C128.12672852 58.70369141 127.56083008 58.18033203 126.9777832 57.64111328 C125.69262695 56.22705078 125.69262695 56.22705078 125.69262695 54.22705078 C121.40262695 54.22705078 117.11262695 54.22705078 112.69262695 54.22705078 C112.7390332 55.59216797 112.78543945 56.95728516 112.83325195 58.36376953 C113.16756186 72.26241789 111.51847453 82.49355305 105.38012695 95.10205078 C90.08472211 126.56238807 87.64073773 164.1260735 87.07080078 198.56152344 C86.77392347 213.0678862 86.77392347 213.0678862 84.69262695 218.22705078 C81.8168845 220.78925464 79.58109743 222.04188552 75.69262695 222.22705078 C71.75648679 220.6834664 70.06036119 219.77865214 67.69262695 216.22705078 C67.22398512 211.37067164 67.35584945 206.47876001 67.38012695 201.60205078 C67.38161743 200.87341827 67.38310791 200.14478577 67.38464355 199.39407349 C67.5334657 158.58071053 72.7562042 116.90507948 90.4934082 79.80126953 C92.7184906 75.02495258 92.90287862 70.80287861 93.0090332 65.62158203 C93.04020485 64.36277473 93.04020485 64.36277473 93.07200623 63.07853699 C93.13736714 60.39895784 93.19632409 57.71928109 93.25512695 55.03955078 C93.29832498 53.22248341 93.34193968 51.4054259 93.38598633 49.58837891 C93.49303475 45.13470279 93.59434015 40.68092853 93.69262695 36.22705078 C93.10360596 36.24799805 92.51458496 36.26894531 91.90771484 36.29052734 C89.19036535 36.37463768 86.47329087 36.42600545 83.75512695 36.47705078 C82.36583984 36.52732422 82.36583984 36.52732422 80.94848633 36.57861328 C71.65563915 36.70903921 65.07795235 34.12952216 58.31762695 27.66455078 C57.50551758 26.90013672 56.6934082 26.13572266 55.85668945 25.34814453 C53.69262695 23.22705078 53.69262695 23.22705078 52.3835144 21.61952209 C50.04443017 19.69325096 48.48124219 19.84267822 45.47436523 19.82641602 C44.40960968 19.81307724 43.34485413 19.79973846 42.24783325 19.78599548 C41.0978183 19.78587967 39.94780334 19.78576385 38.76293945 19.78564453 C37.58045624 19.77243668 36.39797302 19.75922882 35.17965698 19.74562073 C31.39228992 19.70464137 27.60516589 19.68303478 23.81762695 19.66455078 C20.03730375 19.64076459 16.25720963 19.61262079 12.47702026 19.57276917 C10.12319912 19.54842178 7.76925668 19.53355544 5.41531372 19.52915955 C4.34425385 19.51897293 3.27319397 19.50878632 2.16967773 19.49829102 C1.23052521 19.49401596 0.29137268 19.48974091 -0.67623901 19.4853363 C-4.26643432 19.13290444 -7.1237147 18.07252103 -10.05737305 15.97705078 C-11.91770458 13.37258663 -12.18240094 11.41383939 -12.30737305 8.22705078 C-9.71435521 1.48520441 -7.05082732 -0.02727593 0 0 Z " fill="#C7CEE1" transform="translate(73.307373046875,184.77294921875)"/>
<path d="M0 0 C2.38774903 2.3658932 2.96491158 3.6388232 3.29296875 7.015625 C3.25816406 8.08296875 3.22335938 9.1503125 3.1875 10.25 C3.14689453 11.86648437 3.14689453 11.86648437 3.10546875 13.515625 C3.07066406 14.33546875 3.03585938 15.1553125 3 16 C4.1164238 15.99333817 5.2328476 15.98667633 6.38310242 15.97981262 C16.90355743 15.91900156 27.42397679 15.87402733 37.94456768 15.84456348 C43.35333773 15.82890661 48.7619659 15.80766774 54.1706543 15.77368164 C59.39019478 15.74108927 64.60959878 15.72314715 69.82923317 15.71536827 C71.82074952 15.70982457 73.81225839 15.69899912 75.80371666 15.68280983 C78.59286017 15.66103733 81.38143949 15.65803302 84.1706543 15.65942383 C84.99424438 15.648638 85.81783447 15.63785217 86.66638184 15.6267395 C92.45936933 15.65800343 95.80375124 16.80375124 100 21 C100.45993557 25.67601163 100.67058528 27.91318937 98.1875 31.9375 C94.12057213 35.77203199 89.66431817 35.13631712 84.39770508 35.11352539 C83.51944565 35.11367142 82.64118622 35.11381744 81.73631287 35.1139679 C78.83069395 35.11327072 75.92513898 35.10548739 73.01953125 35.09765625 C71.00599706 35.09579138 68.99246242 35.0943678 66.97892761 35.09336853 C61.67708078 35.08954879 56.37526131 35.07972312 51.07342529 35.06866455 C45.66418833 35.05843877 40.25494696 35.0538684 34.84570312 35.04882812 C24.23045673 35.03810039 13.61523064 35.02103046 3 35 C3 37.64 3 40.28 3 43 C4.051875 42.896875 5.10375 42.79375 6.1875 42.6875 C10 43 10 43 12.5625 44.75 C13.734375 46.16015625 13.734375 46.16015625 15 48 C15.81210937 49.17369141 15.81210937 49.17369141 16.640625 50.37109375 C22.1476762 59.64815898 21.47787383 67.48677574 21 78 C29.58 78 38.16 78 47 78 C47 90 47 90 45.125 93.1875 C41.45665342 96.31638385 38.3367288 96.27749472 33.6875 96.375 C32.37136719 96.42398438 31.05523437 96.47296875 29.69921875 96.5234375 C25.15063935 95.87981592 23.78846623 94.56798119 21 91 C20 88 20 88 20 78 C2.51 78 -14.98 78 -33 78 C-33 54.99186992 -33 54.99186992 -26 46 C-23.08369997 43.3286236 -22.3547647 43.01773823 -18.25 42.8125 C-17.1775 42.874375 -16.105 42.93625 -15 43 C-15 40.36 -15 37.72 -15 35 C-16.1164238 35.00666183 -17.2328476 35.01332367 -18.38310242 35.02018738 C-28.90355743 35.08099844 -39.42397679 35.12597267 -49.94456768 35.15543652 C-55.35333773 35.17109339 -60.7619659 35.19233226 -66.1706543 35.22631836 C-71.39019478 35.25891073 -76.60959878 35.27685285 -81.82923317 35.28463173 C-83.82074952 35.29017543 -85.81225839 35.30100088 -87.80371666 35.31719017 C-90.59286017 35.33896267 -93.38143949 35.34196698 -96.1706543 35.34057617 C-96.99424438 35.351362 -97.81783447 35.36214783 -98.66638184 35.3732605 C-104.45936933 35.34199657 -107.80375124 34.19624876 -112 30 C-112.50421994 26.96295432 -112.45467228 24.04197406 -112 21 C-110.12379387 18.49839182 -108.76108697 17.38054348 -106 16 C-103.13168448 15.90665568 -100.28781736 15.87425189 -97.41943359 15.88647461 C-96.53156662 15.88632858 -95.64369965 15.88618256 -94.72892761 15.8860321 C-91.78540631 15.88673045 -88.84194779 15.89451919 -85.8984375 15.90234375 C-83.86105382 15.90420821 -81.82366969 15.90563198 -79.7862854 15.90663147 C-74.41702034 15.91045445 -69.04778223 15.92028289 -63.67852783 15.93133545 C-58.2023556 15.94155426 -52.72617902 15.9461301 -47.25 15.95117188 C-36.49998815 15.96190533 -25.74999631 15.97897915 -15 16 C-15.02682861 15.17072998 -15.05365723 14.34145996 -15.08129883 13.48706055 C-15.10216553 12.40207275 -15.12303223 11.31708496 -15.14453125 10.19921875 C-15.17135986 9.12244873 -15.19818848 8.04567871 -15.22583008 6.9362793 C-15 4 -15 4 -12.6875 0.8125 C-7.84113235 -2.45598051 -5.37899658 -2.01712372 0 0 Z " fill="#81879B" transform="translate(112,107)"/>
<path d="M0 0 C2.38774903 2.3658932 2.96491158 3.6388232 3.29296875 7.015625 C3.25816406 8.08296875 3.22335937 9.1503125 3.1875 10.25 C3.14689453 11.86648437 3.14689453 11.86648437 3.10546875 13.515625 C3.07066406 14.33546875 3.03585937 15.1553125 3 16 C4.13117249 15.99555878 5.26234497 15.99111755 6.42779541 15.98654175 C17.08102606 15.94602202 27.7342411 15.91602825 38.38753128 15.89637566 C43.86466938 15.88593247 49.34174533 15.87176344 54.81884766 15.84912109 C60.10321413 15.82741189 65.38752078 15.8154354 70.67192841 15.81024551 C72.68937878 15.80654631 74.70682584 15.79932282 76.72425079 15.78853989 C79.54703381 15.77405061 82.36956868 15.77202099 85.19238281 15.77294922 C86.44718697 15.76216339 86.44718697 15.76216339 87.7273407 15.75115967 C95.01704083 15.7771479 95.01704083 15.7771479 98 18 C100.67089167 22.00633751 100.70693873 25.28991428 100 30 C97.80168636 33.03215675 96.55036806 33.81654398 93 35 C90.12429099 35.09154624 87.27326714 35.12596964 84.39770508 35.11352539 C83.51944565 35.11367142 82.64118622 35.11381744 81.73631287 35.1139679 C78.83069395 35.11327072 75.92513898 35.10548739 73.01953125 35.09765625 C71.00599706 35.09579138 68.99246242 35.0943678 66.97892761 35.09336853 C61.67708078 35.08954879 56.37526131 35.07972312 51.07342529 35.06866455 C45.66418833 35.05843877 40.25494696 35.0538684 34.84570312 35.04882812 C24.23045673 35.03810039 13.61523064 35.02103046 3 35 C3 37.64 3 40.28 3 43 C4.051875 42.9175 5.10375 42.835 6.1875 42.75 C10.70206755 43.04603722 11.75336361 43.97425817 15 47 C22.59806317 56.90550101 21 64.97184394 21 78 C6.15 78 -8.7 78 -24 78 C-24 82.29 -24 86.58 -24 91 C-25.625 94.3125 -25.625 94.3125 -29 96 C-35.81768909 96.80543105 -42.36481386 97.42764625 -48 93 C-51.17091835 88.5569168 -50.12411812 83.21296101 -50 78 C-44.39 78 -38.78 78 -33 78 C-33.165 75.339375 -33.33 72.67875 -33.5 69.9375 C-33.77197584 60.08402325 -30.69162238 52.92256423 -25 45 C-21.3558226 42.5705484 -19.28758728 42.83820425 -15 43 C-15 40.36 -15 37.72 -15 35 C-16.1164238 35.00666183 -17.2328476 35.01332367 -18.38310242 35.02018738 C-28.90355743 35.08099844 -39.42397679 35.12597267 -49.94456768 35.15543652 C-55.35333773 35.17109339 -60.7619659 35.19233226 -66.1706543 35.22631836 C-71.39019478 35.25891073 -76.60959878 35.27685285 -81.82923317 35.28463173 C-83.82074952 35.29017543 -85.81225839 35.30100088 -87.80371666 35.31719017 C-90.59286017 35.33896267 -93.38143949 35.34196698 -96.1706543 35.34057617 C-96.99424438 35.351362 -97.81783447 35.36214783 -98.66638184 35.3732605 C-103.26813705 35.34842548 -106.27278177 34.99558428 -110 32 C-112.44794742 28.32807887 -112.71435887 25.26893972 -112 21 C-109.79259319 18.03141843 -108.51402627 17.17134209 -105 16 C-102.12429099 15.90845376 -99.27326714 15.87403036 -96.39770508 15.88647461 C-95.08031593 15.88625557 -95.08031593 15.88625557 -93.73631287 15.8860321 C-90.83069395 15.88672928 -87.92513898 15.89451261 -85.01953125 15.90234375 C-83.00599706 15.90420862 -80.99246242 15.9056322 -78.97892761 15.90663147 C-73.67708078 15.91045121 -68.37526131 15.92027688 -63.07342529 15.93133545 C-57.66418833 15.94156123 -52.25494696 15.9461316 -46.84570312 15.95117188 C-36.23045673 15.96189961 -25.61523064 15.97896954 -15 16 C-15.02682861 15.17072998 -15.05365723 14.34145996 -15.08129883 13.48706055 C-15.10216553 12.40207275 -15.12303223 11.31708496 -15.14453125 10.19921875 C-15.17135986 9.12244873 -15.19818848 8.04567871 -15.22583008 6.9362793 C-15 4 -15 4 -12.6875 0.8125 C-7.84113235 -2.45598051 -5.37899658 -2.01712372 0 0 Z " fill="#81879B" transform="translate(412,107)"/>
<path d="M0 0 C0.61858887 0.28258667 1.23717773 0.56517334 1.87451172 0.85632324 C9.99771224 4.22199801 17.42532745 4.58965123 26.125 4.53125 C27.56266542 4.53395315 29.00032903 4.53784236 30.43798828 4.54284668 C33.4334474 4.54870324 36.42842548 4.54030487 39.42382812 4.52148438 C43.23310657 4.49869625 47.04125716 4.51184031 50.85049438 4.53577423 C53.81396745 4.55033756 56.77718003 4.54557858 59.74066162 4.53526306 C61.14386128 4.53262471 62.54708583 4.53576174 63.95025635 4.54518127 C71.93406743 4.58703588 78.54041731 4.0005998 85.93017578 0.85632324 C88 0 88 0 90 0 C90.08797281 3.18732254 90.14071341 6.37432788 90.1875 9.5625 C90.21263672 10.45775391 90.23777344 11.35300781 90.26367188 12.27539062 C90.3265345 17.99588977 89.77266497 21.96058286 87 27 C82.73839402 30.94978115 79.97602719 32.34637297 74.1015625 32.29296875 C69.8384251 31.69866521 66.94314353 28.94314353 64 26 C63.67 42.5 63.34 59 63 76 C51.12 76 39.24 76 27 76 C26.67 59.5 26.34 43 26 26 C24.02 27.65 22.04 29.3 20 31 C16.78548618 32.60725691 13.48666924 32.47397924 10 32 C5.60884596 29.68014503 1.95270768 27.06405855 0.43188477 22.17285156 C-0.03916959 19.8029342 -0.11314046 17.64991236 -0.09765625 15.234375 C-0.09443359 14.34492188 -0.09121094 13.45546875 -0.08789062 12.5390625 C-0.07532227 11.15847656 -0.07532227 11.15847656 -0.0625 9.75 C-0.05798828 8.81414062 -0.05347656 7.87828125 -0.04882812 6.9140625 C-0.03706916 4.60930625 -0.01976857 2.30469727 0 0 Z " fill="#5B5D6E" transform="translate(211,251)"/>
<path d="M0 0 C1.59871948 0.02707031 1.59871948 0.02707031 3.22973633 0.0546875 C4.43666138 0.08949219 4.43666138 0.08949219 5.66796875 0.125 C5.67207764 1.21329102 5.67618652 2.30158203 5.68041992 3.42285156 C5.7024281 7.51608668 5.75693632 11.60838978 5.82055664 15.70117188 C5.84354966 17.46214772 5.85808781 19.22325744 5.86352539 20.984375 C5.90344894 31.79444261 6.5406538 40.36014921 11.66796875 50.125 C12.29603959 51.53835395 12.91197548 52.95720723 13.51171875 54.3828125 C13.78588623 55.01799805 14.06005371 55.65318359 14.3425293 56.30761719 C28.30318766 89.15913979 31.72274658 126.63507986 32.01806641 162.00561523 C32.03485368 163.47647673 32.06243032 164.94724967 32.10009766 166.41772461 C32.15482425 168.58228035 32.17669521 170.74500302 32.19140625 172.91015625 C32.22113525 174.81099976 32.22113525 174.81099976 32.25146484 176.75024414 C31.51373278 181.01705179 29.99120053 182.44628317 26.66796875 185.125 C23.20667295 186.54501879 21.99800561 186.25442622 18.48046875 184.875 C15.66796875 183.125 15.66796875 183.125 13.66796875 180.125 C12.62948921 174.31221191 12.5144667 168.52989048 12.37768555 162.63525391 C11.51202226 125.48906839 8.02523994 87.63485785 -8.3112793 53.76879883 C-12.5094679 45.02760693 -13.63081368 37.81671238 -13.45703125 28.125 C-13.44800781 27.15949219 -13.43898438 26.19398438 -13.4296875 25.19921875 C-13.40633916 22.84103674 -13.37047664 20.4829842 -13.33203125 18.125 C-17.29203125 18.125 -21.25203125 18.125 -25.33203125 18.125 C-22.10944207 10.06852705 -17.23281348 4.62275853 -9.23242188 1.046875 C-5.99060514 0.01647938 -3.39191884 -0.07480455 0 0 Z " fill="#C6CEE1" transform="translate(339.33203125,220.875)"/>
<path d="M0 0 C1.43738163 -0.01610393 2.8748156 -0.02758047 4.31225586 -0.03710938 C5.5129496 -0.04744202 5.5129496 -0.04744202 6.73789978 -0.0579834 C13.72221854 0.12104251 19.59885442 3.17979077 24.5 8 C31 15.05084746 31 15.05084746 31 18 C27.04 18 23.08 18 19 18 C19.04640625 19.36511719 19.0928125 20.73023438 19.140625 22.13671875 C19.47493491 36.03536711 17.82584758 46.26650227 11.6875 58.875 C-3.60790484 90.33533729 -6.05188922 127.89902272 -6.62182617 162.33447266 C-6.91870348 176.84083542 -6.91870348 176.84083542 -9 182 C-11.87574245 184.56220386 -14.11152953 185.81483474 -18 186 C-21.93614016 184.45641562 -23.63226576 183.55160136 -26 180 C-26.46864184 175.14362086 -26.3367775 170.25170922 -26.3125 165.375 C-26.31100952 164.64636749 -26.30951904 163.91773499 -26.3079834 163.16702271 C-26.15916125 122.35365974 -20.93642275 80.6780287 -3.19921875 43.57421875 C-0.97413635 38.7979018 -0.78974833 34.57582783 -0.68359375 29.39453125 C-0.66281265 28.55532639 -0.64203156 27.71612152 -0.62062073 26.85148621 C-0.55525982 24.17190706 -0.49630286 21.49223031 -0.4375 18.8125 C-0.39430198 16.99543263 -0.35068727 15.17837512 -0.30664062 13.36132812 C-0.1995922 8.90765201 -0.09828681 4.45387774 0 0 Z " fill="#C6CEE1" transform="translate(167,221)"/>
<path d="M0 0 C66.66 0 133.32 0 202 0 C202.99 4.95 202.99 4.95 204 10 C205.4230984 12.90630368 205.4230984 12.90630368 207 15 C207.33 15.66 207.66 16.32 208 17 C137.71 17 67.42 17 -5 17 C-3.68 15.02 -2.36 13.04 -1 11 C-0.67 7.37 -0.34 3.74 0 0 Z " fill="#E4E9F5" transform="translate(159,186)"/>
<path d="M0 0 C7.00774087 4.08016492 12.30257119 10.15671766 14.5625 18 C15.74059015 27.67506539 13.37231719 34.70807703 7.4375 42.3125 C1.68283476 48.42073578 -4.82745859 50.19499847 -13.0625 50.5 C-20.34132673 50.25166356 -24.74373467 48.32643369 -30.1875 43.625 C-36.48393011 36.27916487 -38.875403 30.52839063 -38.6875 20.93359375 C-38.13872033 14.49400725 -34.80398181 8.69033852 -30.4375 4 C-21.57900566 -2.72621488 -10.42408078 -4.77904011 0 0 Z " fill="#474756" transform="translate(303.4375,338)"/>
<path d="M0 0 C11.79584058 -0.04516019 23.59162386 -0.08186391 35.38753128 -0.10362434 C40.86466938 -0.11406753 46.34174533 -0.12823656 51.81884766 -0.15087891 C57.10321413 -0.17258811 62.38752078 -0.1845646 67.67192841 -0.18975449 C69.68937878 -0.19345369 71.70682584 -0.20067718 73.72425079 -0.21146011 C76.54703381 -0.22594939 79.36956868 -0.22797901 82.19238281 -0.22705078 C83.44718697 -0.23783661 83.44718697 -0.23783661 84.7273407 -0.24884033 C92.01704083 -0.2228521 92.01704083 -0.2228521 95 2 C97.67089167 6.00633751 97.70693873 9.28991428 97 14 C94.80168636 17.03215675 93.55036806 17.81654398 90 19 C87.12429099 19.09154624 84.27326714 19.12596964 81.39770508 19.11352539 C80.51944565 19.11367142 79.64118622 19.11381744 78.73631287 19.1139679 C75.83069395 19.11327072 72.92513898 19.10548739 70.01953125 19.09765625 C68.00599706 19.09579138 65.99246242 19.0943678 63.97892761 19.09336853 C58.67708078 19.08954879 53.37526131 19.07972312 48.07342529 19.06866455 C42.66418833 19.05843877 37.25494696 19.0538684 31.84570312 19.04882812 C21.23045479 19.03810039 10.61523395 19.02050796 0 19 C0 12.73 0 6.46 0 0 Z " fill="#C7CFE2" transform="translate(415,123)"/>
<path d="M0 0 C0.88786697 -0.00014603 1.77573395 -0.00029205 2.69050598 -0.0004425 C5.63402728 0.00025584 8.57748581 0.00804458 11.52099609 0.01586914 C13.55837978 0.0177336 15.5957639 0.01915737 17.63314819 0.02015686 C23.00241325 0.02397984 28.37165137 0.03380828 33.74090576 0.04486084 C39.217078 0.05507966 44.69325458 0.05965549 50.16943359 0.06469727 C60.91944735 0.07543073 71.66943402 0.09302577 82.41943359 0.11352539 C82.41943359 6.38352539 82.41943359 12.65352539 82.41943359 19.11352539 C70.77125157 19.1812979 59.12320047 19.23633971 47.47486591 19.26896191 C42.06609587 19.28461878 36.65746769 19.30585765 31.2487793 19.33984375 C26.02923882 19.37243612 20.80983481 19.39037824 15.59020042 19.39815712 C13.59868407 19.40370082 11.6071752 19.41452627 9.61571693 19.43071556 C6.82657342 19.45248806 4.0379941 19.45549237 1.2487793 19.45410156 C0.42518921 19.46488739 -0.39840088 19.47567322 -1.24694824 19.48678589 C-7.03993573 19.45552196 -10.38431764 18.30977415 -14.58056641 14.11352539 C-15.08478635 11.07647971 -15.03523869 8.15549945 -14.58056641 5.11352539 C-10.48489673 -0.34736752 -6.38526148 -0.02720878 0 0 Z " fill="#C7CFE2" transform="translate(14.58056640625,122.886474609375)"/>
<path d="M0 0 C1.31738914 -0.00021904 1.31738914 -0.00021904 2.66139221 -0.0004425 C5.56701113 0.00025467 8.4725661 0.008038 11.37817383 0.01586914 C13.39170802 0.01773401 15.40524266 0.01915759 17.41877747 0.02015686 C22.7206243 0.0239766 28.02244377 0.03380227 33.32427979 0.04486084 C38.73351674 0.05508662 44.14275812 0.05965699 49.55200195 0.06469727 C60.16725029 0.075425 70.78247113 0.09301743 81.39770508 0.11352539 C81.39770508 6.38352539 81.39770508 12.65352539 81.39770508 19.11352539 C69.74952305 19.1812979 58.10147195 19.23633971 46.4531374 19.26896191 C41.04436735 19.28461878 35.63573918 19.30585765 30.22705078 19.33984375 C25.0075103 19.37243612 19.7881063 19.39037824 14.56847191 19.39815712 C12.57695556 19.40370082 10.58544668 19.41452627 8.59398842 19.43071556 C5.80484491 19.45248806 3.01626558 19.45549237 0.22705078 19.45410156 C-0.59653931 19.46488739 -1.42012939 19.47567322 -2.26867676 19.48678589 C-6.87043197 19.46195087 -9.87507669 19.10910967 -13.60229492 16.11352539 C-16.05024234 12.44160426 -16.31665379 9.38246511 -15.60229492 5.11352539 C-11.43962887 -0.48454275 -6.45145571 -0.02791924 0 0 Z " fill="#C7CFE2" transform="translate(315.602294921875,122.886474609375)"/>
<path d="M0 0 C11.64818202 -0.0677725 23.29623313 -0.12281432 34.94456768 -0.15543652 C40.35333773 -0.17109339 45.7619659 -0.19233226 51.1706543 -0.22631836 C56.39019478 -0.25891073 61.60959878 -0.27685285 66.82923317 -0.28463173 C68.82074952 -0.29017543 70.81225839 -0.30100088 72.80371666 -0.31719017 C75.59286017 -0.33896267 78.38143949 -0.34196698 81.1706543 -0.34057617 C81.99424438 -0.351362 82.81783447 -0.36214783 83.66638184 -0.3732605 C89.45936933 -0.34199657 92.80375124 0.80375124 97 5 C97.45993557 9.67601163 97.67058528 11.91318937 95.1875 15.9375 C91.12057213 19.77203199 86.66431817 19.13631712 81.39770508 19.11352539 C80.51944565 19.11367142 79.64118622 19.11381744 78.73631287 19.1139679 C75.83069395 19.11327072 72.92513898 19.10548739 70.01953125 19.09765625 C68.00599706 19.09579138 65.99246242 19.0943678 63.97892761 19.09336853 C58.67708078 19.08954879 53.37526131 19.07972312 48.07342529 19.06866455 C42.66418833 19.05843877 37.25494696 19.0538684 31.84570312 19.04882812 C21.23045479 19.03810039 10.61523395 19.02050796 0 19 C0 12.73 0 6.46 0 0 Z " fill="#C7CFE2" transform="translate(115,123)"/>
<path d="M0 0 C0 0.33 0 0.66 0 1 C-0.92727905 1.029729 -0.92727905 1.029729 -1.87329102 1.06005859 C-20.0180503 1.65162564 -20.0180503 1.65162564 -38 4 C-38.90234375 4.12375 -39.8046875 4.2475 -40.734375 4.375 C-43.3293194 4.91773347 -44.88865527 5.38786693 -47 7 C-49.25461216 10.8300572 -50.63691721 14.78484439 -52 19 C-52.66 20.65 -53.32 22.3 -54 24 C-77.43 24 -100.86 24 -125 24 C-117.73571429 15.525 -117.73571429 15.525 -115.625 13.3125 C-115.12226563 12.77238281 -114.61953125 12.23226562 -114.1015625 11.67578125 C-107.82176878 6.66828775 -101.41538297 5.24372489 -93.5625 4.4375 C-92.00221069 4.26480591 -92.00221069 4.26480591 -90.41040039 4.08862305 C-88.13542986 3.84201963 -85.85957319 3.60348819 -83.58300781 3.37207031 C-79.96507319 2.9963731 -76.35459692 2.57370919 -72.7421875 2.1484375 C-48.517223 -0.53089229 -24.34441737 -0.3057359 0 0 Z " fill="#C7CFE2" transform="translate(275,161)"/>
<path d="M0 0 C17.82 0 35.64 0 54 0 C54 5.61 54 11.22 54 17 C62.58 17 71.16 17 80 17 C80 29 80 29 78.125 32.1875 C74.45665342 35.31638385 71.3367288 35.27749472 66.6875 35.375 C65.37136719 35.42398438 64.05523437 35.47296875 62.69921875 35.5234375 C58.15063935 34.87981592 56.78846623 33.56798119 54 30 C53 27 53 27 53 17 C35.51 17 18.02 17 0 17 C0 11.39 0 5.78 0 0 Z " fill="#5A5D6E" transform="translate(79,168)"/>
<path d="M0 0 C17.82 0 35.64 0 54 0 C54 5.61 54 11.22 54 17 C39.15 17 24.3 17 9 17 C9 21.29 9 25.58 9 30 C7.375 33.3125 7.375 33.3125 4 35 C-2.81768909 35.80543105 -9.36481386 36.42764625 -15 32 C-18.17091835 27.5569168 -17.12411812 22.21296101 -17 17 C-11.39 17 -5.78 17 0 17 C0 11.39 0 5.78 0 0 Z " fill="#5A5D6E" transform="translate(379,168)"/>
<path d="M0 0 C1.95168343 0.00022659 1.95168343 0.00022659 3.9427948 0.00045776 C5.36331332 0.01067109 6.78383028 0.02110308 8.2043457 0.03173828 C9.65737209 0.03546895 11.11040099 0.03831567 12.56343079 0.04031372 C16.38574177 0.04794597 20.20790049 0.06759087 24.03015137 0.08972168 C27.93129415 0.11018895 31.83246156 0.11931732 35.73364258 0.12939453 C43.38670674 0.15083722 51.03964551 0.18496814 58.69262695 0.22705078 C58.85698242 1.5825 58.85698242 1.5825 59.0246582 2.96533203 C59.18321289 4.14482422 59.34176758 5.32431641 59.50512695 6.53955078 C59.65594727 7.71130859 59.80676758 8.88306641 59.9621582 10.09033203 C60.71053571 13.30395308 61.2647404 14.17166189 63.69262695 16.22705078 C63.69262695 16.88705078 63.69262695 17.54705078 63.69262695 18.22705078 C51.23885505 19.47862101 38.770356 19.4132016 26.26708984 19.41235352 C22.60738907 19.41456452 18.94797872 19.43284511 15.28833008 19.45166016 C12.95304464 19.45459038 10.61775779 19.45657765 8.2824707 19.45751953 C7.19288559 19.46470505 6.10330048 19.47189056 4.98069763 19.47929382 C3.96516312 19.47621719 2.9496286 19.47314056 1.90332031 19.4699707 C0.57100624 19.47210823 0.57100624 19.47210823 -0.78822327 19.47428894 C-4.32489757 19.12718737 -7.16891245 18.04023692 -10.05737305 15.97705078 C-11.91770458 13.37258663 -12.18240094 11.41383939 -12.30737305 8.22705078 C-9.71435521 1.48520441 -7.05082732 -0.02727593 0 0 Z " fill="#E3E8F4" transform="translate(73.307373046875,184.77294921875)"/>
<path d="M0 0 C7.3453458 -0.11601154 14.69049309 -0.20477378 22.03657055 -0.25906086 C25.44796874 -0.2851206 28.85873874 -0.3204489 32.26977539 -0.37719727 C36.19409584 -0.44207403 40.11816474 -0.4662107 44.04296875 -0.48828125 C45.26396774 -0.51408768 46.48496674 -0.5398941 47.7429657 -0.56648254 C57.18123215 -0.56960701 57.18123215 -0.56960701 60.24731445 2.34301758 C62.28371652 5.43009985 63 7.29634799 63 11 C61.6260627 13.87872577 60.25010563 15.74989437 58 18 C54.90984116 19.06056079 52.00904292 19.12657742 48.76000977 19.12939453 C47.71535049 19.13254669 46.67069122 19.13569885 45.59437561 19.13894653 C44.47139572 19.1369223 43.34841583 19.13489807 42.19140625 19.1328125 C41.03253403 19.13376923 39.8736618 19.13472595 38.67967224 19.13571167 C36.22940008 19.13639203 33.77912612 19.13454778 31.32885742 19.13037109 C27.58052512 19.12502571 23.83231292 19.1303185 20.08398438 19.13671875 C17.70312474 19.13605785 15.32226517 19.13477644 12.94140625 19.1328125 C11.25997276 19.13584885 11.25997276 19.13584885 9.54457092 19.13894653 C8.49675949 19.13579437 7.44894806 19.13264221 6.36938477 19.12939453 C5.45101334 19.12859894 4.53264191 19.12780334 3.58644104 19.12698364 C0.96761482 18.99841002 -1.44641868 18.58036021 -4 18 C-4 17.34 -4 16.68 -4 16 C-3.34 16 -2.68 16 -2 16 C-0.89485234 12.68455701 -0.67892369 9.79589889 -0.4375 6.3125 C-0.35371094 5.13300781 -0.26992188 3.95351562 -0.18359375 2.73828125 C-0.12300781 1.83464844 -0.06242187 0.93101562 0 0 Z " fill="#E3E8F4" transform="translate(388,185)"/>
<path d="M0 0 C0.71607422 -0.01611328 1.43214844 -0.03222656 2.16992188 -0.04882812 C5.36505935 -0.05178933 7.67486095 0.10100413 10.50390625 1.64453125 C14.52501716 5.94782538 13.24678519 12.75588216 13.25 18.25 C13.26224609 19.34763672 13.27449219 20.44527344 13.28710938 21.57617188 C13.29000977 23.16075195 13.29000977 23.16075195 13.29296875 24.77734375 C13.29707764 25.742771 13.30118652 26.70819824 13.30541992 27.70288086 C13.05290996 30.41552308 12.50493062 32.02083916 11.0625 34.3125 C7.57322184 36.89046081 3.84036899 36.64572231 -0.375 36.6875 C-1.67308594 36.71585937 -2.97117188 36.74421875 -4.30859375 36.7734375 C-8.45841807 36.24633387 -10.06018474 35.29200029 -12.9375 32.3125 C-14.45843434 27.74969699 -14.16289483 23.21705432 -14.1875 18.4375 C-14.208125 17.44363281 -14.22875 16.44976562 -14.25 15.42578125 C-14.29943995 6.19286995 -14.29943995 6.19286995 -10.9375 2.3125 C-7.22185162 -0.16459892 -4.300079 -0.01924834 0 0 Z " fill="#C4CFE3" transform="translate(189.9375,343.6875)"/>
<path d="M0 0 C1.99450157 1.78803557 2.89003852 3.19357188 3.25448608 5.86633301 C3.34812904 8.2243696 3.3368571 10.56238015 3.29296875 12.921875 C3.28872391 13.78186096 3.28447906 14.64184692 3.28010559 15.52789307 C3.26334116 18.2689167 3.22569345 21.00919939 3.1875 23.75 C3.17245025 25.61066645 3.15876235 27.47134445 3.14648438 29.33203125 C3.1159993 33.88853447 3.0572752 38.44343997 3 43 C-2.94 43 -8.88 43 -15 43 C-15.11495023 37.53603232 -15.21443187 32.07627522 -15.2746582 26.61206055 C-15.29976702 24.75449391 -15.33386134 22.89702573 -15.37719727 21.03979492 C-15.43801124 18.36612642 -15.4662452 15.69376635 -15.48828125 13.01953125 C-15.51408768 12.19226028 -15.5398941 11.36498932 -15.56648254 10.51264954 C-15.56857408 6.19045698 -15.40634654 4.52049787 -12.65698242 0.9987793 C-7.923038 -2.56244491 -5.40853937 -2.02820227 0 0 Z " fill="#959CB3" transform="translate(412,107)"/>
<path d="M0 0 C1.99450157 1.78803557 2.89003852 3.19357188 3.25448608 5.86633301 C3.34812904 8.2243696 3.3368571 10.56238015 3.29296875 12.921875 C3.28872391 13.78186096 3.28447906 14.64184692 3.28010559 15.52789307 C3.26334116 18.2689167 3.22569345 21.00919939 3.1875 23.75 C3.17245025 25.61066645 3.15876235 27.47134445 3.14648438 29.33203125 C3.1159993 33.88853447 3.0572752 38.44343997 3 43 C-2.94 43 -8.88 43 -15 43 C-15.11495023 37.53603232 -15.21443187 32.07627522 -15.2746582 26.61206055 C-15.29976702 24.75449391 -15.33386134 22.89702573 -15.37719727 21.03979492 C-15.43801124 18.36612642 -15.4662452 15.69376635 -15.48828125 13.01953125 C-15.51408768 12.19226028 -15.5398941 11.36498932 -15.56648254 10.51264954 C-15.56857408 6.19045698 -15.40634654 4.52049787 -12.65698242 0.9987793 C-7.923038 -2.56244491 -5.40853937 -2.02820227 0 0 Z " fill="#959CB3" transform="translate(112,107)"/>
<path d="M0 0 C0.08797281 3.18732254 0.14071341 6.37432788 0.1875 9.5625 C0.21263672 10.45775391 0.23777344 11.35300781 0.26367188 12.27539062 C0.3265345 17.99588977 -0.22733503 21.96058286 -3 27 C-7.25860333 30.94699821 -10.02758263 32.35979024 -15.90234375 32.28515625 C-20.04080973 31.72257149 -22.69107829 29.21013517 -25.65625 26.46875 C-27.78972834 22.54910375 -27.31366709 18.63026273 -27.1875 14.25 C-27.17396484 13.36183594 -27.16042969 12.47367187 -27.14648438 11.55859375 C-27.11121309 9.37177422 -27.06192752 7.18620034 -27 5 C-25.67548828 4.96132812 -25.67548828 4.96132812 -24.32421875 4.921875 C-17.0064668 4.57603065 -10.88751747 3.65738522 -4.109375 0.83984375 C-2 0 -2 0 0 0 Z " fill="#464655" transform="translate(301,251)"/>
<path d="M0 0 C0.6084375 0.27714844 1.216875 0.55429688 1.84375 0.83984375 C10.21956849 4.30102757 18.06433265 4.77576744 27 5 C27.13558695 8.04317386 27.23437239 11.08025562 27.3125 14.125 C27.35439453 14.9809375 27.39628906 15.836875 27.43945312 16.71875 C27.52390194 21.11008824 27.45254913 24.05383748 24.59375 27.53125 C20.83984939 31.10423974 19.33055386 31.87123672 14.125 32.375 C9.80515691 32.26237839 7.33081214 30.7885869 4 28 C0.41504905 24.04419205 -0.13113763 20.4574704 -0.09765625 15.234375 C-0.09443359 14.34492188 -0.09121094 13.45546875 -0.08789062 12.5390625 C-0.07532227 11.15847656 -0.07532227 11.15847656 -0.0625 9.75 C-0.05798828 8.81414062 -0.05347656 7.87828125 -0.04882812 6.9140625 C-0.03706918 4.60930959 -0.02063426 2.30468773 0 0 Z " fill="#464655" transform="translate(211,251)"/>
<path d="M0 0 C6.27 0 12.54 0 19 0 C19.02682159 4.47920597 19.04675177 8.95825351 19.0625 13.4375 C19.07087891 14.71689453 19.07925781 15.99628906 19.08789062 17.31445312 C19.09272461 19.13686523 19.09272461 19.13686523 19.09765625 20.99609375 C19.10551147 22.68496704 19.10551147 22.68496704 19.11352539 24.40795898 C19 27 19 27 18 28 C16.65732587 28.08631874 15.31025678 28.10706473 13.96484375 28.09765625 C12.87224243 28.09390991 12.87224243 28.09390991 11.75756836 28.09008789 C10.8269458 28.08098389 9.89632324 28.07187988 8.9375 28.0625 C4.5134375 28.0315625 4.5134375 28.0315625 0 28 C0 18.76 0 9.52 0 0 Z " fill="#5C5E6F" transform="translate(202,348)"/>
<path d="M0 0 C8.91 0 17.82 0 27 0 C27 12 27 12 25.125 15.1875 C21.45665342 18.31638385 18.3367288 18.27749472 13.6875 18.375 C11.71330078 18.44847656 11.71330078 18.44847656 9.69921875 18.5234375 C5.15063935 17.87981592 3.78846623 16.56798119 1 13 C0 10 0 10 0 0 Z " fill="#FD696A" transform="translate(132,185)"/>
<path d="M0 0 C8.58 0 17.16 0 26 0 C26 13 26 13 24.375 16.3125 C18.87080562 19.06459719 13.02806177 18.8372308 7 18 C2.82777637 16.09932035 2.12780906 15.25561812 0 11 C0 7.37 0 3.74 0 0 Z " fill="#FE6667" transform="translate(362,185)"/>
<path d="M0 0 C0.31365567 5.95945778 -0.14997338 9.72217292 -3 15 C-10.34834629 19.89889753 -22.40099359 18.13944335 -31 18 C-28.41852419 10.85129776 -23.93593066 5.75434395 -17.3125 2 C-11.61971546 -0.62271584 -6.15246738 -0.47570624 0 0 Z " fill="#AFB9D2" transform="translate(345,221)"/>
<path d="M0 0 C8.24679881 -0.54077369 15.7546922 0.58696836 22.37109375 5.90625 C25.55196432 9.03459243 28.47956599 12.31155998 31 16 C31 16.66 31 17.32 31 18 C7.93115269 18.37408942 7.93115269 18.37408942 2.75 14.6875 C-0.45191069 9.77028002 -0.09585182 5.75110908 0 0 Z " fill="#AFB9D2" transform="translate(167,221)"/>
<path d="M0 0 C1.73056641 -0.02513672 1.73056641 -0.02513672 3.49609375 -0.05078125 C6.5625 0.3125 6.5625 0.3125 8.4453125 1.4921875 C10.8039888 5.33534539 10.10585647 9.99152236 9.5625 14.3125 C8.25 17 8.25 17 5.5625 18.3125 C-3.56695715 19.46051557 -3.56695715 19.46051557 -7.2578125 17.1953125 C-9.01989106 14.38298845 -8.79769936 12.03391778 -8.75 8.75 C-8.74613281 7.59371094 -8.74226562 6.43742187 -8.73828125 5.24609375 C-8.15170961 -0.47488424 -4.98218774 0.01666284 0 0 Z " fill="#79917A" transform="translate(242.4375,339.6875)"/>
<path d="M0 0 C3 1.9375 3 1.9375 5 5 C5.32931326 8.9174556 5.14115712 12.55957689 2.64453125 15.7109375 C-0.16988037 17.91700837 -2.48340552 18 -6 18 C-9.27523158 16.15396038 -11.48777812 14.81838767 -12.546875 11.05859375 C-12.81667462 7.10902711 -12.21713788 5.31583691 -9.9375 2 C-6.22192774 -0.52975133 -4.4117517 -0.7878128 0 0 Z " fill="#DDE3EF" transform="translate(295,353)"/>
<path d="M0 0 C2.5 1.5 2.5 1.5 4 4 C4.70851227 8.95958592 4.74555354 10.85837114 2 15.0625 C-1.55375638 17.35763433 -3.16883679 17.40891547 -7.19921875 16.56640625 C-9.7108779 15.776405 -10.71057742 15.35129999 -12 13 C-12.85956755 10.26716801 -13.26176186 7.86267229 -13 5 C-9.42976287 -0.52810911 -6.10488519 -0.87212646 0 0 Z " fill="#E2E8F4" transform="translate(247,367)"/>
</svg>
