<?xml version="1.0" standalone="no"?>
<!DOCTYPE svg PUBLIC "-//W3C//DTD SVG 20010904//EN"
 "http://www.w3.org/TR/2001/REC-SVG-20010904/DTD/svg10.dtd">
<svg version="1.0" xmlns="http://www.w3.org/2000/svg"
 width="512.000000pt" height="512.000000pt" viewBox="0 0 512.000000 512.000000"
 preserveAspectRatio="xMidYMid meet">

<g transform="translate(0.000000,512.000000) scale(0.100000,-0.100000)"
fill="#000000" stroke="none">
<path d="M1001 4541 c-12 -8 -61 -234 -158 -728 -18 -92 -30 -133 -39 -133
-13 0 -18 13 -15 33 1 5 -3 6 -9 2 -6 -3 -8 -10 -5 -15 3 -4 -1 -11 -7 -13
-10 -4 -10 -6 0 -6 6 -1 12 -8 12 -16 0 -8 -6 -15 -12 -15 -9 0 -30 -89 -66
-273 -29 -149 -125 -641 -213 -1092 -180 -917 -156 -836 -264 -877 l-60 -23
72 -3 c40 -2 73 -6 73 -10 -1 -4 -38 -195 -84 -424 l-82 -418 1995 1 c1098 0
2013 3 2035 7 32 6 40 13 52 42 7 19 49 222 93 450 44 228 164 847 266 1375
248 1277 229 1175 216 1175 -23 0 38 48 84 66 l50 19 -52 3 c-47 3 -52 5 -50
25 1 16 -3 22 -19 21 -13 0 -21 7 -22 19 0 11 33 194 74 407 40 213 74 392 74
398 0 14 -3917 17 -3939 3z m3819 -866 c0 -3 -9 -5 -20 -5 -11 0 -20 7 -20 15
0 13 4 14 20 5 11 -6 20 -13 20 -15z m-26 -124 c4 -5 -3 -7 -14 -4 -23 6 -26
13 -6 13 8 0 17 -4 20 -9z m-2920 -447 c9 -3 13 -11 10 -16 -4 -6 2 -5 14 1
26 14 35 14 26 0 -4 -8 0 -9 15 -4 13 4 21 2 21 -5 0 -6 6 -10 13 -7 15 5 87
-31 105 -53 8 -8 11 -9 7 -2 -4 7 0 12 9 12 9 0 16 -4 16 -9 0 -5 8 -8 18 -6
9 1 22 -1 27 -5 6 -3 31 -14 58 -24 26 -10 47 -23 47 -29 0 -8 3 -7 9 2 7 10
12 8 25 -10 13 -19 16 -20 16 -6 0 15 3 16 23 5 12 -7 28 -11 35 -10 6 2 12
-2 12 -8 0 -5 9 -10 20 -10 14 0 18 -5 14 -17 -4 -13 -3 -14 3 -5 10 13 73 6
73 -9 0 -5 7 -6 15 -3 8 4 15 1 15 -6 0 -6 4 -8 10 -5 5 3 30 -3 54 -15 25
-11 57 -21 71 -22 14 -1 25 -6 25 -10 0 -4 7 -8 15 -8 8 0 40 -12 72 -27 32
-14 61 -27 65 -27 3 -1 10 -4 14 -8 4 -5 17 -8 30 -8 12 0 35 -6 51 -14 22
-12 99 -38 123 -42 9 -1 44 -15 66 -26 12 -6 32 -7 45 -3 19 5 21 4 9 -4 -8
-6 -12 -11 -7 -11 4 0 9 1 10 3 2 1 11 -4 20 -12 14 -11 17 -11 17 0 0 8 5 6
13 -6 9 -11 19 -15 27 -10 10 6 12 4 6 -10 -5 -15 -4 -16 8 -6 10 8 16 9 21 1
3 -5 13 -10 21 -10 8 0 12 4 9 10 -3 6 1 7 10 4 9 -4 14 -13 10 -21 -3 -10 -1
-13 9 -10 7 3 25 -1 40 -8 14 -8 28 -10 31 -5 3 4 0 11 -5 13 -6 3 -5 4 2 3 7
-2 12 -9 11 -15 -2 -6 2 -11 8 -11 25 0 -27 -235 -87 -391 -41 -110 -144 -352
-153 -361 -9 -10 -289 122 -467 221 -366 204 -650 438 -928 764 l-50 58 23 62
c12 34 31 71 42 83 10 11 16 23 13 27 -6 6 24 87 32 87 1 0 9 -3 18 -6z m1266
-358 c0 -3 -4 -8 -10 -11 -5 -3 -10 -1 -10 4 0 6 5 11 10 11 6 0 10 -2 10 -4z
m223 -121 c-3 -9 -8 -14 -10 -11 -3 3 -2 9 2 15 9 16 15 13 8 -4z m633 -100
c-4 -14 -11 -25 -16 -25 -11 0 -7 41 6 62 11 18 18 -7 10 -37z m59 17 c-2 -3
3 -11 11 -19 8 -9 13 -22 9 -30 -4 -12 0 -14 21 -9 19 5 24 4 18 -6 -5 -10 -4
-10 6 -1 11 10 11 18 2 38 -16 34 -15 39 2 23 8 -7 14 -15 14 -18 0 -3 1 -8 2
-12 5 -15 8 -28 9 -41 0 -8 8 -14 16 -14 8 0 12 4 9 9 -3 4 0 8 5 8 6 0 12
-10 12 -22 1 -19 2 -19 6 -5 3 10 10 16 17 14 6 -3 21 2 31 10 17 13 17 15 3
10 -10 -4 -18 -2 -18 3 0 10 25 15 45 10 6 -2 21 -4 34 -5 14 -1 27 -7 29 -13
2 -7 13 -12 23 -12 13 0 18 -4 13 -12 -5 -10 -4 -10 6 -1 9 8 19 9 32 2 10 -5
23 -7 28 -4 5 3 12 0 16 -6 4 -8 3 -9 -4 -5 -7 4 -12 3 -12 -3 0 -5 5 -13 10
-16 6 -4 8 -10 5 -14 -2 -5 6 -8 18 -8 43 -1 46 -3 41 -25 -3 -13 -14 -70 -24
-128 -54 -297 -159 -832 -165 -838 -10 -10 -766 238 -815 268 -11 7 0 24 52
78 80 85 141 170 205 287 72 129 183 407 183 456 0 5 5 7 10 4 6 -4 8 -10 6
-14 -3 -4 10 -7 27 -8 30 -1 30 -1 7 6 l-25 8 25 10 c24 10 53 -3 43 -19 -2
-5 1 -8 6 -8 6 0 11 7 11 15 0 8 -6 15 -12 15 -9 0 -8 4 2 10 8 5 11 10 5 11
-5 1 -14 3 -20 4 -5 2 -14 3 -18 4 -17 2 2 17 22 17 11 0 18 -2 16 -4z m35 -6
c0 -8 6 -17 13 -19 9 -4 9 -6 0 -6 -7 -1 -17 8 -23 19 -7 14 -7 20 0 20 5 0
10 -6 10 -14z m128 -24 c15 12 16 11 3 -4 -10 -14 -11 -21 -2 -32 10 -12 9
-13 -7 -9 -11 2 -19 10 -18 16 1 15 -18 21 -20 7 -3 -20 -4 -21 -14 -15 -6 4
-3 16 7 31 14 22 17 23 25 9 8 -13 12 -14 26 -3z m292 -66 c0 -3 -4 -8 -10
-11 -5 -3 -10 -1 -10 4 0 6 5 11 10 11 6 0 10 -2 10 -4z m-20 -37 c0 -5 -4 -9
-8 -9 -5 0 -9 7 -9 15 0 8 4 12 9 9 4 -3 8 -9 8 -15z"/>
<path d="M1887 3021 c-3 -12 -1 -19 3 -16 5 3 10 -3 12 -12 2 -10 6 -13 9 -8
3 6 0 20 -6 33 -12 23 -13 23 -18 3z"/>
<path d="M1935 3029 c-4 -6 -5 -12 -2 -15 2 -3 7 2 10 11 7 17 1 20 -8 4z"/>
<path d="M2037 3009 c7 -7 15 -10 18 -7 3 3 -2 9 -12 12 -14 6 -15 5 -6 -5z"/>
<path d="M1995 3001 c-3 -5 -1 -12 5 -16 5 -3 10 1 10 9 0 18 -6 21 -15 7z"/>
<path d="M2099 2983 c-1 -5 -1 -11 0 -15 0 -5 -3 -8 -9 -8 -5 0 -10 -5 -10
-12 0 -9 3 -9 12 0 11 11 20 42 12 42 -2 0 -5 -3 -5 -7z"/>
<path d="M2190 2971 c0 -6 4 -13 10 -16 6 -3 7 1 4 9 -7 18 -14 21 -14 7z"/>
<path d="M4275 2470 c-3 -5 -1 -10 4 -10 6 0 11 5 11 10 0 6 -2 10 -4 10 -3 0
-8 -4 -11 -10z"/>
<path d="M4097 2459 c7 -7 15 -10 18 -7 3 3 -2 9 -12 12 -14 6 -15 5 -6 -5z"/>
<path d="M4303 2457 c2 -6 10 -11 17 -9 7 1 18 -3 26 -9 9 -7 14 -8 14 -1 0 5
-14 15 -31 21 -23 8 -29 8 -26 -2z"/>
<path d="M3962 2446 c15 -11 15 -13 0 -24 -14 -10 -13 -11 6 -2 12 6 22 15 22
19 0 5 -10 11 -22 14 -20 5 -21 5 -6 -7z"/>
<path d="M4330 2410 c6 -11 13 -20 16 -20 2 0 0 9 -6 20 -6 11 -13 20 -16 20
-2 0 0 -9 6 -20z"/>
<path d="M4414 2421 c4 -5 0 -11 -6 -14 -7 -2 -9 -8 -5 -13 4 -5 12 -2 17 6
13 20 12 30 -1 30 -5 0 -8 -4 -5 -9z"/>
<path d="M4240 2391 c0 -6 4 -13 10 -16 6 -3 7 1 4 9 -7 18 -14 21 -14 7z"/>
</g>
</svg>
