<svg xmlns="http://www.w3.org/2000/svg" xmlns:xlink="http://www.w3.org/1999/xlink" width="102.763" height="47.897" version="1.1" viewBox="0 0 102.763 47.897"><g><g fill="#8e0a26" stroke="none" stroke-miterlimit="10"><g><path d="M233.49907,156.08405c1.16725,0 -3.02063,-1.71397 -10.61186,19.66557c-6.3283,17.81481 8.76121,21.31951 12.38598,21.6119h10.97816l-3.54002,6.58253l-54.09262,-0.02186c11.29254,-1.74929 18.6924,-14.7477 21.6119,-22.34167c4.67447,-17.7164 14.75055,-25.50456 23.26847,-25.50456" transform="translate(-188.6187,-156.05132)"/><path d="M246.49819,203.91595c-1.16725,0 3.0179,1.71409 10.6146,-19.66819c6.3283,-17.81218 -8.76121,-21.31951 -12.38871,-21.60927h-10.97816l3.54275,-6.58526l54.09263,0.01313c-11.298,1.75214 -18.69241,14.7477 -21.61464,22.34166c-4.67174,17.71662 -14.75329,25.5074 -23.26847,25.5074" transform="translate(-188.6187,-156.05132)"/></g></g></g></svg>